<mxfile host="app.diagrams.net" modified="2024-05-16T12:45:03.618Z" agent="Mozilla/5.0 (Windows NT 10.0; Win64; x64) AppleWebKit/537.36 (KHTML, like Gecko) Chrome/124.0.0.0 Safari/537.36 Edg/124.0.0.0" etag="p5ZQcURVl09LYDvIYOMS" version="24.3.1" type="github">
  <diagram name="第 1 页" id="tUKBxdM7_xL5C1LiaCt_">
    <mxGraphModel dx="5678" dy="492" grid="0" gridSize="10" guides="1" tooltips="1" connect="1" arrows="1" fold="1" page="0" pageScale="1" pageWidth="827" pageHeight="1169" math="0" shadow="0">
      <root>
        <mxCell id="0" />
        <mxCell id="1" parent="0" />
        <mxCell id="L2CVsLjOSn7QCdIP_LNi-9" style="edgeStyle=orthogonalEdgeStyle;rounded=0;orthogonalLoop=1;jettySize=auto;html=1;entryX=0;entryY=0.5;entryDx=0;entryDy=0;" parent="1" source="L2CVsLjOSn7QCdIP_LNi-1" target="L2CVsLjOSn7QCdIP_LNi-2" edge="1">
          <mxGeometry relative="1" as="geometry" />
        </mxCell>
        <mxCell id="L2CVsLjOSn7QCdIP_LNi-10" style="edgeStyle=orthogonalEdgeStyle;rounded=0;orthogonalLoop=1;jettySize=auto;html=1;exitX=1;exitY=0.5;exitDx=0;exitDy=0;entryX=0;entryY=0.5;entryDx=0;entryDy=0;" parent="1" source="L2CVsLjOSn7QCdIP_LNi-1" target="L2CVsLjOSn7QCdIP_LNi-3" edge="1">
          <mxGeometry relative="1" as="geometry" />
        </mxCell>
        <mxCell id="L2CVsLjOSn7QCdIP_LNi-11" style="edgeStyle=orthogonalEdgeStyle;rounded=0;orthogonalLoop=1;jettySize=auto;html=1;exitX=1;exitY=0.5;exitDx=0;exitDy=0;entryX=0;entryY=0.5;entryDx=0;entryDy=0;" parent="1" source="L2CVsLjOSn7QCdIP_LNi-1" target="L2CVsLjOSn7QCdIP_LNi-4" edge="1">
          <mxGeometry relative="1" as="geometry" />
        </mxCell>
        <mxCell id="L2CVsLjOSn7QCdIP_LNi-12" style="edgeStyle=orthogonalEdgeStyle;rounded=0;orthogonalLoop=1;jettySize=auto;html=1;exitX=1;exitY=0.5;exitDx=0;exitDy=0;entryX=0;entryY=0.5;entryDx=0;entryDy=0;" parent="1" source="L2CVsLjOSn7QCdIP_LNi-1" target="L2CVsLjOSn7QCdIP_LNi-5" edge="1">
          <mxGeometry relative="1" as="geometry" />
        </mxCell>
        <mxCell id="L2CVsLjOSn7QCdIP_LNi-13" style="edgeStyle=orthogonalEdgeStyle;rounded=0;orthogonalLoop=1;jettySize=auto;html=1;exitX=1;exitY=0.5;exitDx=0;exitDy=0;entryX=0;entryY=0.5;entryDx=0;entryDy=0;" parent="1" source="L2CVsLjOSn7QCdIP_LNi-1" target="L2CVsLjOSn7QCdIP_LNi-6" edge="1">
          <mxGeometry relative="1" as="geometry" />
        </mxCell>
        <mxCell id="L2CVsLjOSn7QCdIP_LNi-14" style="edgeStyle=orthogonalEdgeStyle;rounded=0;orthogonalLoop=1;jettySize=auto;html=1;exitX=1;exitY=0.5;exitDx=0;exitDy=0;entryX=0;entryY=0.5;entryDx=0;entryDy=0;" parent="1" source="L2CVsLjOSn7QCdIP_LNi-1" target="L2CVsLjOSn7QCdIP_LNi-7" edge="1">
          <mxGeometry relative="1" as="geometry" />
        </mxCell>
        <mxCell id="L2CVsLjOSn7QCdIP_LNi-15" style="edgeStyle=orthogonalEdgeStyle;rounded=0;orthogonalLoop=1;jettySize=auto;html=1;exitX=1;exitY=0.5;exitDx=0;exitDy=0;entryX=0;entryY=0.5;entryDx=0;entryDy=0;" parent="1" source="L2CVsLjOSn7QCdIP_LNi-1" target="L2CVsLjOSn7QCdIP_LNi-8" edge="1">
          <mxGeometry relative="1" as="geometry" />
        </mxCell>
        <mxCell id="v-9v-QomNasKNrCwQyGU-2" style="edgeStyle=orthogonalEdgeStyle;rounded=0;orthogonalLoop=1;jettySize=auto;html=1;exitX=1;exitY=0.5;exitDx=0;exitDy=0;entryX=0;entryY=0.5;entryDx=0;entryDy=0;" parent="1" source="L2CVsLjOSn7QCdIP_LNi-1" target="v-9v-QomNasKNrCwQyGU-1" edge="1">
          <mxGeometry relative="1" as="geometry" />
        </mxCell>
        <mxCell id="L2CVsLjOSn7QCdIP_LNi-1" value="生活缴费小程序" style="rounded=0;whiteSpace=wrap;html=1;fontSize=14;fontStyle=1" parent="1" vertex="1">
          <mxGeometry x="-345" y="934" width="103" height="55" as="geometry" />
        </mxCell>
        <mxCell id="L2CVsLjOSn7QCdIP_LNi-2" value="&lt;p class=&quot;MsoNormal&quot; style=&quot;font-size: 14px;&quot;&gt;&lt;b style=&quot;font-size: 14px;&quot;&gt;&lt;font face=&quot;Segoe UI&quot; style=&quot;font-size: 14px;&quot;&gt;用户注册与登录&lt;/font&gt;&lt;/b&gt;&lt;/p&gt;" style="rounded=0;whiteSpace=wrap;html=1;fontSize=14;" parent="1" vertex="1">
          <mxGeometry x="-106" y="628" width="120" height="60" as="geometry" />
        </mxCell>
        <mxCell id="L2CVsLjOSn7QCdIP_LNi-3" value="&lt;p class=&quot;MsoNormal&quot; style=&quot;font-size: 14px;&quot;&gt;&lt;b style=&quot;font-size: 14px;&quot;&gt;缴费服务列表&lt;/b&gt;&lt;/p&gt;" style="rounded=0;whiteSpace=wrap;html=1;fontSize=14;" parent="1" vertex="1">
          <mxGeometry x="-106" y="716" width="120" height="60" as="geometry" />
        </mxCell>
        <mxCell id="L2CVsLjOSn7QCdIP_LNi-4" value="&lt;p class=&quot;MsoNormal&quot; style=&quot;font-size: 14px;&quot;&gt;&lt;b style=&quot;font-size: 14px;&quot;&gt;账单查询与展示&lt;/b&gt;&lt;/p&gt;" style="rounded=0;whiteSpace=wrap;html=1;fontSize=14;" parent="1" vertex="1">
          <mxGeometry x="-106" y="804" width="120" height="60" as="geometry" />
        </mxCell>
        <mxCell id="L2CVsLjOSn7QCdIP_LNi-5" value="&lt;p class=&quot;MsoNormal&quot; style=&quot;font-size: 14px;&quot;&gt;&lt;b style=&quot;font-size: 14px;&quot;&gt;&lt;font face=&quot;宋体&quot; style=&quot;font-size: 14px;&quot;&gt;消费记录下载&lt;/font&gt;&lt;/b&gt;&lt;/p&gt;" style="rounded=0;whiteSpace=wrap;html=1;fontSize=14;" parent="1" vertex="1">
          <mxGeometry x="-106" y="889" width="120" height="60" as="geometry" />
        </mxCell>
        <mxCell id="L2CVsLjOSn7QCdIP_LNi-6" value="&lt;p class=&quot;MsoNormal&quot; style=&quot;font-size: 14px;&quot;&gt;&lt;b style=&quot;font-size: 14px;&quot;&gt;缴费操作&lt;/b&gt;&lt;/p&gt;" style="rounded=0;whiteSpace=wrap;html=1;fontSize=14;" parent="1" vertex="1">
          <mxGeometry x="-106" y="975" width="120" height="60" as="geometry" />
        </mxCell>
        <mxCell id="L2CVsLjOSn7QCdIP_LNi-7" value="&lt;p class=&quot;MsoNormal&quot; style=&quot;font-size: 14px;&quot;&gt;&lt;b style=&quot;font-size: 14px;&quot;&gt;通知与提醒&lt;/b&gt;&lt;/p&gt;" style="rounded=0;whiteSpace=wrap;html=1;fontSize=14;" parent="1" vertex="1">
          <mxGeometry x="-106" y="1065" width="120" height="60" as="geometry" />
        </mxCell>
        <mxCell id="L2CVsLjOSn7QCdIP_LNi-8" value="&lt;p class=&quot;MsoNormal&quot; style=&quot;font-size: 14px;&quot;&gt;&lt;b style=&quot;font-size: 14px;&quot;&gt;个性化服务&lt;/b&gt;&lt;/p&gt;" style="rounded=0;whiteSpace=wrap;html=1;fontSize=14;" parent="1" vertex="1">
          <mxGeometry x="-106" y="1155" width="120" height="60" as="geometry" />
        </mxCell>
        <mxCell id="v-9v-QomNasKNrCwQyGU-1" value="&lt;p class=&quot;MsoNormal&quot; style=&quot;font-size: 14px;&quot;&gt;&lt;b&gt;发票下载&lt;/b&gt;&lt;/p&gt;" style="rounded=0;whiteSpace=wrap;html=1;fontSize=14;" parent="1" vertex="1">
          <mxGeometry x="-106" y="1245" width="120" height="60" as="geometry" />
        </mxCell>
        <mxCell id="68sZiEqwBh2bfW3YKWfS-41" style="edgeStyle=orthogonalEdgeStyle;rounded=0;orthogonalLoop=1;jettySize=auto;html=1;endArrow=none;endFill=0;" edge="1" parent="1" source="68sZiEqwBh2bfW3YKWfS-1" target="68sZiEqwBh2bfW3YKWfS-3">
          <mxGeometry relative="1" as="geometry" />
        </mxCell>
        <mxCell id="68sZiEqwBh2bfW3YKWfS-42" style="edgeStyle=orthogonalEdgeStyle;rounded=0;orthogonalLoop=1;jettySize=auto;html=1;exitX=0.5;exitY=1;exitDx=0;exitDy=0;endArrow=none;endFill=0;" edge="1" parent="1" source="68sZiEqwBh2bfW3YKWfS-1" target="68sZiEqwBh2bfW3YKWfS-2">
          <mxGeometry relative="1" as="geometry" />
        </mxCell>
        <mxCell id="68sZiEqwBh2bfW3YKWfS-43" style="edgeStyle=orthogonalEdgeStyle;rounded=0;orthogonalLoop=1;jettySize=auto;html=1;exitX=0.5;exitY=1;exitDx=0;exitDy=0;endArrow=none;endFill=0;" edge="1" parent="1" source="68sZiEqwBh2bfW3YKWfS-1" target="68sZiEqwBh2bfW3YKWfS-4">
          <mxGeometry relative="1" as="geometry" />
        </mxCell>
        <mxCell id="68sZiEqwBh2bfW3YKWfS-1" value="生活缴费小程序" style="rounded=0;whiteSpace=wrap;html=1;fontSize=14;fontStyle=1" vertex="1" parent="1">
          <mxGeometry x="751" y="736" width="103" height="55" as="geometry" />
        </mxCell>
        <mxCell id="68sZiEqwBh2bfW3YKWfS-45" style="edgeStyle=orthogonalEdgeStyle;rounded=0;orthogonalLoop=1;jettySize=auto;html=1;exitX=0.5;exitY=1;exitDx=0;exitDy=0;entryX=0.5;entryY=0;entryDx=0;entryDy=0;endArrow=none;endFill=0;" edge="1" parent="1" source="68sZiEqwBh2bfW3YKWfS-2" target="68sZiEqwBh2bfW3YKWfS-17">
          <mxGeometry relative="1" as="geometry" />
        </mxCell>
        <mxCell id="68sZiEqwBh2bfW3YKWfS-46" style="edgeStyle=orthogonalEdgeStyle;rounded=0;orthogonalLoop=1;jettySize=auto;html=1;exitX=0.5;exitY=1;exitDx=0;exitDy=0;entryX=0.5;entryY=0;entryDx=0;entryDy=0;endArrow=none;endFill=0;" edge="1" parent="1" source="68sZiEqwBh2bfW3YKWfS-2" target="68sZiEqwBh2bfW3YKWfS-24">
          <mxGeometry relative="1" as="geometry" />
        </mxCell>
        <mxCell id="68sZiEqwBh2bfW3YKWfS-47" style="edgeStyle=orthogonalEdgeStyle;rounded=0;orthogonalLoop=1;jettySize=auto;html=1;exitX=0.5;exitY=1;exitDx=0;exitDy=0;entryX=0.5;entryY=0;entryDx=0;entryDy=0;endArrow=none;endFill=0;" edge="1" parent="1" source="68sZiEqwBh2bfW3YKWfS-2" target="68sZiEqwBh2bfW3YKWfS-18">
          <mxGeometry relative="1" as="geometry" />
        </mxCell>
        <mxCell id="68sZiEqwBh2bfW3YKWfS-2" value="用户管理功能模块" style="rounded=0;whiteSpace=wrap;html=1;fontSize=14;fontStyle=1" vertex="1" parent="1">
          <mxGeometry x="481" y="870" width="103" height="55" as="geometry" />
        </mxCell>
        <mxCell id="68sZiEqwBh2bfW3YKWfS-48" style="edgeStyle=orthogonalEdgeStyle;rounded=0;orthogonalLoop=1;jettySize=auto;html=1;exitX=0.5;exitY=1;exitDx=0;exitDy=0;entryX=0.5;entryY=0;entryDx=0;entryDy=0;endArrow=none;endFill=0;" edge="1" parent="1" source="68sZiEqwBh2bfW3YKWfS-3" target="68sZiEqwBh2bfW3YKWfS-20">
          <mxGeometry relative="1" as="geometry" />
        </mxCell>
        <mxCell id="68sZiEqwBh2bfW3YKWfS-49" style="edgeStyle=orthogonalEdgeStyle;rounded=0;orthogonalLoop=1;jettySize=auto;html=1;exitX=0.5;exitY=1;exitDx=0;exitDy=0;entryX=0.5;entryY=0;entryDx=0;entryDy=0;endArrow=none;endFill=0;" edge="1" parent="1" source="68sZiEqwBh2bfW3YKWfS-3" target="68sZiEqwBh2bfW3YKWfS-19">
          <mxGeometry relative="1" as="geometry" />
        </mxCell>
        <mxCell id="68sZiEqwBh2bfW3YKWfS-50" style="edgeStyle=orthogonalEdgeStyle;rounded=0;orthogonalLoop=1;jettySize=auto;html=1;exitX=0.5;exitY=1;exitDx=0;exitDy=0;entryX=0.5;entryY=0;entryDx=0;entryDy=0;endArrow=none;endFill=0;" edge="1" parent="1" source="68sZiEqwBh2bfW3YKWfS-3" target="68sZiEqwBh2bfW3YKWfS-21">
          <mxGeometry relative="1" as="geometry" />
        </mxCell>
        <mxCell id="68sZiEqwBh2bfW3YKWfS-3" value="账单管理功能模块" style="rounded=0;whiteSpace=wrap;html=1;fontSize=14;fontStyle=1" vertex="1" parent="1">
          <mxGeometry x="751" y="873" width="103" height="55" as="geometry" />
        </mxCell>
        <mxCell id="68sZiEqwBh2bfW3YKWfS-52" style="edgeStyle=orthogonalEdgeStyle;rounded=0;orthogonalLoop=1;jettySize=auto;html=1;exitX=0.5;exitY=1;exitDx=0;exitDy=0;entryX=0.5;entryY=0;entryDx=0;entryDy=0;endArrow=none;endFill=0;" edge="1" parent="1" source="68sZiEqwBh2bfW3YKWfS-4" target="68sZiEqwBh2bfW3YKWfS-14">
          <mxGeometry relative="1" as="geometry" />
        </mxCell>
        <mxCell id="68sZiEqwBh2bfW3YKWfS-53" style="edgeStyle=orthogonalEdgeStyle;rounded=0;orthogonalLoop=1;jettySize=auto;html=1;exitX=0.5;exitY=1;exitDx=0;exitDy=0;entryX=0.5;entryY=0;entryDx=0;entryDy=0;endArrow=none;endFill=0;" edge="1" parent="1" source="68sZiEqwBh2bfW3YKWfS-4" target="68sZiEqwBh2bfW3YKWfS-12">
          <mxGeometry relative="1" as="geometry" />
        </mxCell>
        <mxCell id="68sZiEqwBh2bfW3YKWfS-54" style="edgeStyle=orthogonalEdgeStyle;rounded=0;orthogonalLoop=1;jettySize=auto;html=1;exitX=0.5;exitY=1;exitDx=0;exitDy=0;entryX=0.5;entryY=0;entryDx=0;entryDy=0;endArrow=none;endFill=0;" edge="1" parent="1" source="68sZiEqwBh2bfW3YKWfS-4" target="68sZiEqwBh2bfW3YKWfS-13">
          <mxGeometry relative="1" as="geometry" />
        </mxCell>
        <mxCell id="68sZiEqwBh2bfW3YKWfS-4" value="用户缴费功能模块" style="rounded=0;whiteSpace=wrap;html=1;fontSize=14;fontStyle=1" vertex="1" parent="1">
          <mxGeometry x="1021" y="870" width="103" height="55" as="geometry" />
        </mxCell>
        <mxCell id="68sZiEqwBh2bfW3YKWfS-12" value="缴费项目选择" style="rounded=0;whiteSpace=wrap;html=1;fontSize=14;fontStyle=1" vertex="1" parent="1">
          <mxGeometry x="1021" y="1039" width="24" height="102" as="geometry" />
        </mxCell>
        <mxCell id="68sZiEqwBh2bfW3YKWfS-13" value="缴费公司选择" style="rounded=0;whiteSpace=wrap;html=1;fontSize=14;fontStyle=1" vertex="1" parent="1">
          <mxGeometry x="1100" y="1039" width="24" height="102" as="geometry" />
        </mxCell>
        <mxCell id="68sZiEqwBh2bfW3YKWfS-14" value="支付缴费项目" style="rounded=0;whiteSpace=wrap;html=1;fontSize=14;fontStyle=1" vertex="1" parent="1">
          <mxGeometry x="1060.5" y="1039" width="24" height="102" as="geometry" />
        </mxCell>
        <mxCell id="68sZiEqwBh2bfW3YKWfS-17" value="用户登录" style="rounded=0;whiteSpace=wrap;html=1;fontSize=14;fontStyle=1" vertex="1" parent="1">
          <mxGeometry x="481" y="1039" width="24" height="102" as="geometry" />
        </mxCell>
        <mxCell id="68sZiEqwBh2bfW3YKWfS-18" value="用户权限登录" style="rounded=0;whiteSpace=wrap;html=1;fontSize=14;fontStyle=1" vertex="1" parent="1">
          <mxGeometry x="560" y="1039" width="24" height="102" as="geometry" />
        </mxCell>
        <mxCell id="68sZiEqwBh2bfW3YKWfS-19" value="查看账单" style="rounded=0;whiteSpace=wrap;html=1;fontSize=14;fontStyle=1" vertex="1" parent="1">
          <mxGeometry x="748.5" y="1039" width="24" height="102" as="geometry" />
        </mxCell>
        <mxCell id="68sZiEqwBh2bfW3YKWfS-20" value="账单分析" style="rounded=0;whiteSpace=wrap;html=1;fontSize=14;fontStyle=1" vertex="1" parent="1">
          <mxGeometry x="790.5" y="1039" width="24" height="102" as="geometry" />
        </mxCell>
        <mxCell id="68sZiEqwBh2bfW3YKWfS-21" value="账单导出" style="rounded=0;whiteSpace=wrap;html=1;fontSize=14;fontStyle=1" vertex="1" parent="1">
          <mxGeometry x="833" y="1039" width="24" height="102" as="geometry" />
        </mxCell>
        <mxCell id="68sZiEqwBh2bfW3YKWfS-24" value="短信发送" style="rounded=0;whiteSpace=wrap;html=1;fontSize=14;fontStyle=1" vertex="1" parent="1">
          <mxGeometry x="520.5" y="1039" width="24" height="102" as="geometry" />
        </mxCell>
        <mxCell id="68sZiEqwBh2bfW3YKWfS-88" style="edgeStyle=orthogonalEdgeStyle;rounded=0;orthogonalLoop=1;jettySize=auto;html=1;endArrow=none;endFill=0;fontSize=18;" edge="1" parent="1" source="68sZiEqwBh2bfW3YKWfS-55" target="68sZiEqwBh2bfW3YKWfS-87">
          <mxGeometry relative="1" as="geometry" />
        </mxCell>
        <mxCell id="68sZiEqwBh2bfW3YKWfS-90" value="n" style="edgeLabel;html=1;align=center;verticalAlign=middle;resizable=0;points=[];fontSize=18;" vertex="1" connectable="0" parent="68sZiEqwBh2bfW3YKWfS-88">
          <mxGeometry x="-0.1885" y="1" relative="1" as="geometry">
            <mxPoint as="offset" />
          </mxGeometry>
        </mxCell>
        <mxCell id="68sZiEqwBh2bfW3YKWfS-55" value="城市" style="rounded=0;whiteSpace=wrap;html=1;fontSize=18;" vertex="1" parent="1">
          <mxGeometry x="-2003" y="905" width="103" height="74" as="geometry" />
        </mxCell>
        <mxCell id="68sZiEqwBh2bfW3YKWfS-56" value="服务" style="rounded=0;whiteSpace=wrap;html=1;fontSize=18;" vertex="1" parent="1">
          <mxGeometry x="-2003" y="1243" width="103" height="74" as="geometry" />
        </mxCell>
        <mxCell id="68sZiEqwBh2bfW3YKWfS-57" value="收款单位" style="rounded=0;whiteSpace=wrap;html=1;fontSize=18;" vertex="1" parent="1">
          <mxGeometry x="-1496" y="905" width="103" height="74" as="geometry" />
        </mxCell>
        <mxCell id="68sZiEqwBh2bfW3YKWfS-58" value="用户" style="rounded=0;whiteSpace=wrap;html=1;fontSize=18;" vertex="1" parent="1">
          <mxGeometry x="-1063" y="1222.5" width="103" height="72" as="geometry" />
        </mxCell>
        <mxCell id="68sZiEqwBh2bfW3YKWfS-59" value="账单" style="rounded=0;whiteSpace=wrap;html=1;fontSize=18;" vertex="1" parent="1">
          <mxGeometry x="-1496" y="1223" width="103" height="74" as="geometry" />
        </mxCell>
        <mxCell id="68sZiEqwBh2bfW3YKWfS-60" value="城市id" style="ellipse;whiteSpace=wrap;html=1;fontSize=18;" vertex="1" parent="1">
          <mxGeometry x="-2154" y="791" width="93" height="67" as="geometry" />
        </mxCell>
        <mxCell id="68sZiEqwBh2bfW3YKWfS-61" value="城市名" style="ellipse;whiteSpace=wrap;html=1;fontSize=18;" vertex="1" parent="1">
          <mxGeometry x="-2051" y="767" width="93" height="67" as="geometry" />
        </mxCell>
        <mxCell id="68sZiEqwBh2bfW3YKWfS-62" value="服务id" style="ellipse;whiteSpace=wrap;html=1;fontSize=18;" vertex="1" parent="1">
          <mxGeometry x="-2086" y="1378" width="93" height="67" as="geometry" />
        </mxCell>
        <mxCell id="68sZiEqwBh2bfW3YKWfS-63" value="用户id" style="ellipse;whiteSpace=wrap;html=1;fontSize=18;" vertex="1" parent="1">
          <mxGeometry x="-873" y="1193.5" width="93" height="67" as="geometry" />
        </mxCell>
        <mxCell id="68sZiEqwBh2bfW3YKWfS-64" value="所属城市" style="ellipse;whiteSpace=wrap;html=1;fontSize=18;" vertex="1" parent="1">
          <mxGeometry x="-1606" y="1422" width="93" height="67" as="geometry" />
        </mxCell>
        <mxCell id="68sZiEqwBh2bfW3YKWfS-65" value="账单id" style="ellipse;whiteSpace=wrap;html=1;fontSize=18;" vertex="1" parent="1">
          <mxGeometry x="-1702" y="1405" width="93" height="67" as="geometry" />
        </mxCell>
        <mxCell id="68sZiEqwBh2bfW3YKWfS-66" value="单位id" style="ellipse;whiteSpace=wrap;html=1;fontSize=18;" vertex="1" parent="1">
          <mxGeometry x="-1360" y="829" width="93" height="67" as="geometry" />
        </mxCell>
        <mxCell id="68sZiEqwBh2bfW3YKWfS-67" value="首个字母" style="ellipse;whiteSpace=wrap;html=1;fontSize=18;" vertex="1" parent="1">
          <mxGeometry x="-1936" y="770" width="93" height="67" as="geometry" />
        </mxCell>
        <mxCell id="68sZiEqwBh2bfW3YKWfS-68" value="单位名" style="ellipse;whiteSpace=wrap;html=1;fontSize=18;" vertex="1" parent="1">
          <mxGeometry x="-1562" y="784" width="93" height="67" as="geometry" />
        </mxCell>
        <mxCell id="68sZiEqwBh2bfW3YKWfS-69" value="用户名" style="ellipse;whiteSpace=wrap;html=1;fontSize=18;" vertex="1" parent="1">
          <mxGeometry x="-1010" y="1054.5" width="93" height="67" as="geometry" />
        </mxCell>
        <mxCell id="68sZiEqwBh2bfW3YKWfS-70" value="图片路径" style="ellipse;whiteSpace=wrap;html=1;fontSize=18;" vertex="1" parent="1">
          <mxGeometry x="-1885" y="1366" width="93" height="67" as="geometry" />
        </mxCell>
        <mxCell id="68sZiEqwBh2bfW3YKWfS-71" value="服务名" style="ellipse;whiteSpace=wrap;html=1;fontSize=18;" vertex="1" parent="1">
          <mxGeometry x="-1983" y="1401" width="93" height="67" as="geometry" />
        </mxCell>
        <mxCell id="68sZiEqwBh2bfW3YKWfS-72" value="电话号" style="ellipse;whiteSpace=wrap;html=1;fontSize=18;" vertex="1" parent="1">
          <mxGeometry x="-888" y="1084.5" width="93" height="67" as="geometry" />
        </mxCell>
        <mxCell id="68sZiEqwBh2bfW3YKWfS-73" value="提供的服务" style="ellipse;whiteSpace=wrap;html=1;fontSize=18;" vertex="1" parent="1">
          <mxGeometry x="-1457" y="762" width="93" height="67" as="geometry" />
        </mxCell>
        <mxCell id="68sZiEqwBh2bfW3YKWfS-74" value="头像路径" style="ellipse;whiteSpace=wrap;html=1;fontSize=18;" vertex="1" parent="1">
          <mxGeometry x="-1121" y="1059" width="93" height="67" as="geometry" />
        </mxCell>
        <mxCell id="68sZiEqwBh2bfW3YKWfS-79" value="用户id" style="ellipse;whiteSpace=wrap;html=1;fontSize=18;" vertex="1" parent="1">
          <mxGeometry x="-1246" y="1326" width="93" height="67" as="geometry" />
        </mxCell>
        <mxCell id="68sZiEqwBh2bfW3YKWfS-80" value="缴费时间" style="ellipse;whiteSpace=wrap;html=1;fontSize=18;" vertex="1" parent="1">
          <mxGeometry x="-1383" y="1426" width="93" height="67" as="geometry" />
        </mxCell>
        <mxCell id="68sZiEqwBh2bfW3YKWfS-81" value="公司id" style="ellipse;whiteSpace=wrap;html=1;fontSize=18;" vertex="1" parent="1">
          <mxGeometry x="-1303" y="1386" width="93" height="67" as="geometry" />
        </mxCell>
        <mxCell id="68sZiEqwBh2bfW3YKWfS-82" value="缴费总金额" style="ellipse;whiteSpace=wrap;html=1;fontSize=18;" vertex="1" parent="1">
          <mxGeometry x="-1491" y="1422" width="93" height="67" as="geometry" />
        </mxCell>
        <mxCell id="68sZiEqwBh2bfW3YKWfS-84" value="" style="endArrow=none;html=1;rounded=0;entryX=0.5;entryY=1;entryDx=0;entryDy=0;exitX=0;exitY=0;exitDx=0;exitDy=0;fontSize=18;" edge="1" parent="1" source="68sZiEqwBh2bfW3YKWfS-55" target="68sZiEqwBh2bfW3YKWfS-60">
          <mxGeometry width="50" height="50" relative="1" as="geometry">
            <mxPoint x="-2105" y="1075" as="sourcePoint" />
            <mxPoint x="-2055" y="1025" as="targetPoint" />
          </mxGeometry>
        </mxCell>
        <mxCell id="68sZiEqwBh2bfW3YKWfS-85" value="" style="endArrow=none;html=1;rounded=0;entryX=0.5;entryY=1;entryDx=0;entryDy=0;exitX=0.5;exitY=0;exitDx=0;exitDy=0;fontSize=18;" edge="1" parent="1" source="68sZiEqwBh2bfW3YKWfS-55" target="68sZiEqwBh2bfW3YKWfS-61">
          <mxGeometry width="50" height="50" relative="1" as="geometry">
            <mxPoint x="-1837" y="958" as="sourcePoint" />
            <mxPoint x="-1787" y="908" as="targetPoint" />
          </mxGeometry>
        </mxCell>
        <mxCell id="68sZiEqwBh2bfW3YKWfS-86" value="" style="endArrow=none;html=1;rounded=0;entryX=0.5;entryY=1;entryDx=0;entryDy=0;exitX=0.75;exitY=0;exitDx=0;exitDy=0;fontSize=18;" edge="1" parent="1" source="68sZiEqwBh2bfW3YKWfS-55" target="68sZiEqwBh2bfW3YKWfS-67">
          <mxGeometry width="50" height="50" relative="1" as="geometry">
            <mxPoint x="-1493" y="1012" as="sourcePoint" />
            <mxPoint x="-1443" y="962" as="targetPoint" />
          </mxGeometry>
        </mxCell>
        <mxCell id="68sZiEqwBh2bfW3YKWfS-89" style="edgeStyle=orthogonalEdgeStyle;rounded=0;orthogonalLoop=1;jettySize=auto;html=1;exitX=0.5;exitY=1;exitDx=0;exitDy=0;endArrow=none;endFill=0;fontSize=18;" edge="1" parent="1" source="68sZiEqwBh2bfW3YKWfS-87" target="68sZiEqwBh2bfW3YKWfS-56">
          <mxGeometry relative="1" as="geometry" />
        </mxCell>
        <mxCell id="68sZiEqwBh2bfW3YKWfS-91" value="m" style="edgeLabel;html=1;align=center;verticalAlign=middle;resizable=0;points=[];fontSize=18;" vertex="1" connectable="0" parent="68sZiEqwBh2bfW3YKWfS-89">
          <mxGeometry x="-0.1093" relative="1" as="geometry">
            <mxPoint y="-1" as="offset" />
          </mxGeometry>
        </mxCell>
        <mxCell id="68sZiEqwBh2bfW3YKWfS-87" value="提供" style="rhombus;whiteSpace=wrap;html=1;fontSize=18;" vertex="1" parent="1">
          <mxGeometry x="-2018" y="1072" width="133" height="80" as="geometry" />
        </mxCell>
        <mxCell id="68sZiEqwBh2bfW3YKWfS-92" value="" style="endArrow=none;html=1;rounded=0;entryX=0.5;entryY=1;entryDx=0;entryDy=0;exitX=0.5;exitY=0;exitDx=0;exitDy=0;fontSize=18;" edge="1" parent="1" source="68sZiEqwBh2bfW3YKWfS-62" target="68sZiEqwBh2bfW3YKWfS-56">
          <mxGeometry width="50" height="50" relative="1" as="geometry">
            <mxPoint x="-2178" y="1344" as="sourcePoint" />
            <mxPoint x="-2128" y="1294" as="targetPoint" />
          </mxGeometry>
        </mxCell>
        <mxCell id="68sZiEqwBh2bfW3YKWfS-93" value="" style="endArrow=none;html=1;rounded=0;entryX=0.5;entryY=1;entryDx=0;entryDy=0;exitX=0.5;exitY=0;exitDx=0;exitDy=0;fontSize=18;" edge="1" parent="1" source="68sZiEqwBh2bfW3YKWfS-71" target="68sZiEqwBh2bfW3YKWfS-56">
          <mxGeometry width="50" height="50" relative="1" as="geometry">
            <mxPoint x="-1978" y="1580" as="sourcePoint" />
            <mxPoint x="-1928" y="1530" as="targetPoint" />
          </mxGeometry>
        </mxCell>
        <mxCell id="68sZiEqwBh2bfW3YKWfS-94" value="" style="endArrow=none;html=1;rounded=0;entryX=0.633;entryY=0.996;entryDx=0;entryDy=0;entryPerimeter=0;exitX=0.5;exitY=0;exitDx=0;exitDy=0;fontSize=18;" edge="1" parent="1" source="68sZiEqwBh2bfW3YKWfS-70" target="68sZiEqwBh2bfW3YKWfS-56">
          <mxGeometry width="50" height="50" relative="1" as="geometry">
            <mxPoint x="-1827" y="1379" as="sourcePoint" />
            <mxPoint x="-1777" y="1329" as="targetPoint" />
          </mxGeometry>
        </mxCell>
        <mxCell id="68sZiEqwBh2bfW3YKWfS-95" value="" style="endArrow=none;html=1;rounded=0;entryX=1;entryY=1;entryDx=0;entryDy=0;exitX=0.388;exitY=0;exitDx=0;exitDy=0;exitPerimeter=0;fontSize=18;" edge="1" parent="1" source="68sZiEqwBh2bfW3YKWfS-58" target="68sZiEqwBh2bfW3YKWfS-74">
          <mxGeometry width="50" height="50" relative="1" as="geometry">
            <mxPoint x="-1171" y="1338.5" as="sourcePoint" />
            <mxPoint x="-1121" y="1288.5" as="targetPoint" />
          </mxGeometry>
        </mxCell>
        <mxCell id="68sZiEqwBh2bfW3YKWfS-96" value="" style="endArrow=none;html=1;rounded=0;entryX=0.5;entryY=1;entryDx=0;entryDy=0;exitX=0.5;exitY=0;exitDx=0;exitDy=0;fontSize=18;" edge="1" parent="1" source="68sZiEqwBh2bfW3YKWfS-58" target="68sZiEqwBh2bfW3YKWfS-69">
          <mxGeometry width="50" height="50" relative="1" as="geometry">
            <mxPoint x="-1117" y="1435.5" as="sourcePoint" />
            <mxPoint x="-1067" y="1385.5" as="targetPoint" />
          </mxGeometry>
        </mxCell>
        <mxCell id="68sZiEqwBh2bfW3YKWfS-97" value="" style="endArrow=none;html=1;rounded=0;entryX=0.5;entryY=1;entryDx=0;entryDy=0;exitX=0.75;exitY=0;exitDx=0;exitDy=0;fontSize=18;" edge="1" parent="1" source="68sZiEqwBh2bfW3YKWfS-58" target="68sZiEqwBh2bfW3YKWfS-72">
          <mxGeometry width="50" height="50" relative="1" as="geometry">
            <mxPoint x="-1024" y="1409.5" as="sourcePoint" />
            <mxPoint x="-974" y="1359.5" as="targetPoint" />
          </mxGeometry>
        </mxCell>
        <mxCell id="68sZiEqwBh2bfW3YKWfS-98" value="" style="endArrow=none;html=1;rounded=0;entryX=0;entryY=0.5;entryDx=0;entryDy=0;exitX=0.75;exitY=0;exitDx=0;exitDy=0;fontSize=18;" edge="1" parent="1" source="68sZiEqwBh2bfW3YKWfS-58" target="68sZiEqwBh2bfW3YKWfS-63">
          <mxGeometry width="50" height="50" relative="1" as="geometry">
            <mxPoint x="-973" y="1394.5" as="sourcePoint" />
            <mxPoint x="-923" y="1344.5" as="targetPoint" />
          </mxGeometry>
        </mxCell>
        <mxCell id="68sZiEqwBh2bfW3YKWfS-99" value="" style="endArrow=none;html=1;rounded=0;entryX=0.433;entryY=0.97;entryDx=0;entryDy=0;entryPerimeter=0;exitX=0.5;exitY=0;exitDx=0;exitDy=0;fontSize=18;" edge="1" parent="1" source="68sZiEqwBh2bfW3YKWfS-57" target="68sZiEqwBh2bfW3YKWfS-68">
          <mxGeometry width="50" height="50" relative="1" as="geometry">
            <mxPoint x="-1471" y="885" as="sourcePoint" />
            <mxPoint x="-1421" y="835" as="targetPoint" />
          </mxGeometry>
        </mxCell>
        <mxCell id="68sZiEqwBh2bfW3YKWfS-100" value="" style="endArrow=none;html=1;rounded=0;entryX=0.5;entryY=1;entryDx=0;entryDy=0;exitX=0.5;exitY=0;exitDx=0;exitDy=0;fontSize=18;" edge="1" parent="1" source="68sZiEqwBh2bfW3YKWfS-57" target="68sZiEqwBh2bfW3YKWfS-73">
          <mxGeometry width="50" height="50" relative="1" as="geometry">
            <mxPoint x="-1557" y="1150" as="sourcePoint" />
            <mxPoint x="-1507" y="1100" as="targetPoint" />
          </mxGeometry>
        </mxCell>
        <mxCell id="68sZiEqwBh2bfW3YKWfS-101" value="" style="endArrow=none;html=1;rounded=0;entryX=0;entryY=0.5;entryDx=0;entryDy=0;exitX=0.5;exitY=0;exitDx=0;exitDy=0;fontSize=18;" edge="1" parent="1" source="68sZiEqwBh2bfW3YKWfS-57" target="68sZiEqwBh2bfW3YKWfS-66">
          <mxGeometry width="50" height="50" relative="1" as="geometry">
            <mxPoint x="-1404" y="1087" as="sourcePoint" />
            <mxPoint x="-1354" y="1037" as="targetPoint" />
          </mxGeometry>
        </mxCell>
        <mxCell id="68sZiEqwBh2bfW3YKWfS-102" value="处于" style="rhombus;whiteSpace=wrap;html=1;fontSize=18;direction=west;" vertex="1" parent="1">
          <mxGeometry x="-1790" y="902" width="127" height="77" as="geometry" />
        </mxCell>
        <mxCell id="68sZiEqwBh2bfW3YKWfS-103" value="" style="endArrow=none;html=1;rounded=0;entryX=1;entryY=0.5;entryDx=0;entryDy=0;fontSize=18;" edge="1" parent="1" source="68sZiEqwBh2bfW3YKWfS-55" target="68sZiEqwBh2bfW3YKWfS-102">
          <mxGeometry width="50" height="50" relative="1" as="geometry">
            <mxPoint x="-1817" y="1074" as="sourcePoint" />
            <mxPoint x="-1767" y="1024" as="targetPoint" />
          </mxGeometry>
        </mxCell>
        <mxCell id="68sZiEqwBh2bfW3YKWfS-104" value="1" style="text;html=1;align=center;verticalAlign=middle;resizable=0;points=[];autosize=1;strokeColor=none;fillColor=none;fontSize=18;" vertex="1" parent="1">
          <mxGeometry x="-1858" y="924" width="28" height="34" as="geometry" />
        </mxCell>
        <mxCell id="68sZiEqwBh2bfW3YKWfS-105" value="" style="endArrow=none;html=1;rounded=0;entryX=0;entryY=0.5;entryDx=0;entryDy=0;exitX=0;exitY=0.5;exitDx=0;exitDy=0;fontSize=18;" edge="1" parent="1" source="68sZiEqwBh2bfW3YKWfS-102" target="68sZiEqwBh2bfW3YKWfS-57">
          <mxGeometry width="50" height="50" relative="1" as="geometry">
            <mxPoint x="-1612" y="1124" as="sourcePoint" />
            <mxPoint x="-1562" y="1074" as="targetPoint" />
          </mxGeometry>
        </mxCell>
        <mxCell id="68sZiEqwBh2bfW3YKWfS-106" value="n" style="edgeLabel;html=1;align=center;verticalAlign=middle;resizable=0;points=[];fontSize=18;" vertex="1" connectable="0" parent="68sZiEqwBh2bfW3YKWfS-105">
          <mxGeometry x="0.1083" y="-2" relative="1" as="geometry">
            <mxPoint x="-2" y="-4" as="offset" />
          </mxGeometry>
        </mxCell>
        <mxCell id="68sZiEqwBh2bfW3YKWfS-107" value="属于" style="rhombus;whiteSpace=wrap;html=1;fontSize=18;direction=west;" vertex="1" parent="1">
          <mxGeometry x="-1508" y="1072" width="127" height="77" as="geometry" />
        </mxCell>
        <mxCell id="68sZiEqwBh2bfW3YKWfS-108" value="" style="endArrow=none;html=1;rounded=0;entryX=0.25;entryY=1;entryDx=0;entryDy=0;exitX=0.5;exitY=0;exitDx=0;exitDy=0;fontSize=18;" edge="1" parent="1" source="68sZiEqwBh2bfW3YKWfS-64" target="68sZiEqwBh2bfW3YKWfS-59">
          <mxGeometry width="50" height="50" relative="1" as="geometry">
            <mxPoint x="-1509" y="1461" as="sourcePoint" />
            <mxPoint x="-1459" y="1411" as="targetPoint" />
          </mxGeometry>
        </mxCell>
        <mxCell id="68sZiEqwBh2bfW3YKWfS-109" value="" style="endArrow=none;html=1;rounded=0;entryX=0.25;entryY=1;entryDx=0;entryDy=0;exitX=0.5;exitY=0;exitDx=0;exitDy=0;fontSize=18;" edge="1" parent="1" source="68sZiEqwBh2bfW3YKWfS-82" target="68sZiEqwBh2bfW3YKWfS-59">
          <mxGeometry width="50" height="50" relative="1" as="geometry">
            <mxPoint x="-1342" y="1486" as="sourcePoint" />
            <mxPoint x="-1292" y="1436" as="targetPoint" />
          </mxGeometry>
        </mxCell>
        <mxCell id="68sZiEqwBh2bfW3YKWfS-110" value="" style="endArrow=none;html=1;rounded=0;entryX=0.575;entryY=0.982;entryDx=0;entryDy=0;entryPerimeter=0;exitX=0;exitY=0;exitDx=0;exitDy=0;fontSize=18;" edge="1" parent="1" source="68sZiEqwBh2bfW3YKWfS-80" target="68sZiEqwBh2bfW3YKWfS-59">
          <mxGeometry width="50" height="50" relative="1" as="geometry">
            <mxPoint x="-1298" y="1371" as="sourcePoint" />
            <mxPoint x="-1248" y="1321" as="targetPoint" />
          </mxGeometry>
        </mxCell>
        <mxCell id="68sZiEqwBh2bfW3YKWfS-111" value="" style="endArrow=none;html=1;rounded=0;entryX=0.75;entryY=1;entryDx=0;entryDy=0;exitX=0.039;exitY=0.371;exitDx=0;exitDy=0;exitPerimeter=0;fontSize=18;" edge="1" parent="1" source="68sZiEqwBh2bfW3YKWfS-81" target="68sZiEqwBh2bfW3YKWfS-59">
          <mxGeometry width="50" height="50" relative="1" as="geometry">
            <mxPoint x="-1319" y="1316" as="sourcePoint" />
            <mxPoint x="-1269" y="1266" as="targetPoint" />
          </mxGeometry>
        </mxCell>
        <mxCell id="68sZiEqwBh2bfW3YKWfS-112" value="" style="endArrow=none;html=1;rounded=0;entryX=1;entryY=1;entryDx=0;entryDy=0;exitX=0;exitY=0.5;exitDx=0;exitDy=0;fontSize=18;" edge="1" parent="1" source="68sZiEqwBh2bfW3YKWfS-79" target="68sZiEqwBh2bfW3YKWfS-59">
          <mxGeometry width="50" height="50" relative="1" as="geometry">
            <mxPoint x="-1285" y="1273" as="sourcePoint" />
            <mxPoint x="-1235" y="1223" as="targetPoint" />
          </mxGeometry>
        </mxCell>
        <mxCell id="68sZiEqwBh2bfW3YKWfS-113" value="" style="endArrow=none;html=1;rounded=0;exitX=0;exitY=1;exitDx=0;exitDy=0;entryX=1;entryY=0;entryDx=0;entryDy=0;fontSize=18;" edge="1" parent="1" source="68sZiEqwBh2bfW3YKWfS-59" target="68sZiEqwBh2bfW3YKWfS-65">
          <mxGeometry width="50" height="50" relative="1" as="geometry">
            <mxPoint x="-1351" y="1293" as="sourcePoint" />
            <mxPoint x="-1627" y="1363" as="targetPoint" />
          </mxGeometry>
        </mxCell>
        <mxCell id="68sZiEqwBh2bfW3YKWfS-116" value="" style="endArrow=none;html=1;rounded=0;entryX=0.5;entryY=1;entryDx=0;entryDy=0;exitX=0.5;exitY=1;exitDx=0;exitDy=0;fontSize=18;" edge="1" parent="1" source="68sZiEqwBh2bfW3YKWfS-107" target="68sZiEqwBh2bfW3YKWfS-57">
          <mxGeometry width="50" height="50" relative="1" as="geometry">
            <mxPoint x="-1282" y="1106" as="sourcePoint" />
            <mxPoint x="-1232" y="1056" as="targetPoint" />
          </mxGeometry>
        </mxCell>
        <mxCell id="68sZiEqwBh2bfW3YKWfS-117" value="1" style="edgeLabel;html=1;align=center;verticalAlign=middle;resizable=0;points=[];fontSize=18;" vertex="1" connectable="0" parent="68sZiEqwBh2bfW3YKWfS-116">
          <mxGeometry x="-0.0832" relative="1" as="geometry">
            <mxPoint y="-1" as="offset" />
          </mxGeometry>
        </mxCell>
        <mxCell id="68sZiEqwBh2bfW3YKWfS-120" value="&lt;font style=&quot;font-size: 18px;&quot;&gt;1&lt;/font&gt;" style="edgeLabel;html=1;align=center;verticalAlign=middle;resizable=0;points=[];fontSize=18;" vertex="1" connectable="0" parent="68sZiEqwBh2bfW3YKWfS-116">
          <mxGeometry x="-0.1285" y="-1" relative="1" as="geometry">
            <mxPoint y="-1" as="offset" />
          </mxGeometry>
        </mxCell>
        <mxCell id="68sZiEqwBh2bfW3YKWfS-118" value="" style="endArrow=none;html=1;rounded=0;entryX=0.5;entryY=0;entryDx=0;entryDy=0;exitX=0.5;exitY=0;exitDx=0;exitDy=0;fontSize=18;" edge="1" parent="1" source="68sZiEqwBh2bfW3YKWfS-59" target="68sZiEqwBh2bfW3YKWfS-107">
          <mxGeometry width="50" height="50" relative="1" as="geometry">
            <mxPoint x="-1323" y="1218" as="sourcePoint" />
            <mxPoint x="-1273" y="1168" as="targetPoint" />
          </mxGeometry>
        </mxCell>
        <mxCell id="68sZiEqwBh2bfW3YKWfS-119" value="&lt;font style=&quot;font-size: 18px;&quot;&gt;n&lt;/font&gt;" style="edgeLabel;html=1;align=center;verticalAlign=middle;resizable=0;points=[];fontSize=18;" vertex="1" connectable="0" parent="68sZiEqwBh2bfW3YKWfS-118">
          <mxGeometry x="0.0512" y="1" relative="1" as="geometry">
            <mxPoint as="offset" />
          </mxGeometry>
        </mxCell>
        <mxCell id="68sZiEqwBh2bfW3YKWfS-122" value="缴纳" style="rhombus;whiteSpace=wrap;html=1;fontSize=18;direction=west;" vertex="1" parent="1">
          <mxGeometry x="-1290" y="1220" width="127" height="77" as="geometry" />
        </mxCell>
        <mxCell id="68sZiEqwBh2bfW3YKWfS-123" value="" style="endArrow=none;html=1;rounded=0;entryX=1;entryY=0.5;entryDx=0;entryDy=0;exitX=1;exitY=0.5;exitDx=0;exitDy=0;fontSize=18;" edge="1" parent="1" source="68sZiEqwBh2bfW3YKWfS-59" target="68sZiEqwBh2bfW3YKWfS-122">
          <mxGeometry width="50" height="50" relative="1" as="geometry">
            <mxPoint x="-1379" y="1318" as="sourcePoint" />
            <mxPoint x="-1329" y="1268" as="targetPoint" />
          </mxGeometry>
        </mxCell>
        <mxCell id="68sZiEqwBh2bfW3YKWfS-125" value="n" style="edgeLabel;html=1;align=center;verticalAlign=middle;resizable=0;points=[];fontSize=18;" vertex="1" connectable="0" parent="68sZiEqwBh2bfW3YKWfS-123">
          <mxGeometry x="0.0098" relative="1" as="geometry">
            <mxPoint y="-1" as="offset" />
          </mxGeometry>
        </mxCell>
        <mxCell id="68sZiEqwBh2bfW3YKWfS-126" value="&lt;font style=&quot;font-size: 18px;&quot;&gt;n&lt;/font&gt;" style="edgeLabel;html=1;align=center;verticalAlign=middle;resizable=0;points=[];fontSize=18;" vertex="1" connectable="0" parent="68sZiEqwBh2bfW3YKWfS-123">
          <mxGeometry x="0.0303" relative="1" as="geometry">
            <mxPoint as="offset" />
          </mxGeometry>
        </mxCell>
        <mxCell id="68sZiEqwBh2bfW3YKWfS-124" value="" style="endArrow=none;html=1;rounded=0;entryX=0;entryY=0.5;entryDx=0;entryDy=0;exitX=0;exitY=0.5;exitDx=0;exitDy=0;fontSize=18;" edge="1" parent="1" source="68sZiEqwBh2bfW3YKWfS-122" target="68sZiEqwBh2bfW3YKWfS-58">
          <mxGeometry width="50" height="50" relative="1" as="geometry">
            <mxPoint x="-1125" y="1400" as="sourcePoint" />
            <mxPoint x="-1075" y="1350" as="targetPoint" />
          </mxGeometry>
        </mxCell>
        <mxCell id="68sZiEqwBh2bfW3YKWfS-127" value="&lt;font style=&quot;font-size: 18px;&quot;&gt;1&lt;/font&gt;" style="edgeLabel;html=1;align=center;verticalAlign=middle;resizable=0;points=[];fontSize=18;" vertex="1" connectable="0" parent="68sZiEqwBh2bfW3YKWfS-124">
          <mxGeometry x="0.0926" y="-1" relative="1" as="geometry">
            <mxPoint x="-12" y="-1" as="offset" />
          </mxGeometry>
        </mxCell>
        <mxCell id="68sZiEqwBh2bfW3YKWfS-131" value="" style="rounded=0;whiteSpace=wrap;html=1;" vertex="1" parent="1">
          <mxGeometry x="-414" y="1634" width="498" height="600" as="geometry" />
        </mxCell>
        <mxCell id="68sZiEqwBh2bfW3YKWfS-132" value="账单导出" style="ellipse;whiteSpace=wrap;html=1;fontSize=19;" vertex="1" parent="1">
          <mxGeometry x="-362" y="1707" width="213" height="73" as="geometry" />
        </mxCell>
        <mxCell id="68sZiEqwBh2bfW3YKWfS-133" value="账单分析" style="ellipse;whiteSpace=wrap;html=1;fontSize=19;" vertex="1" parent="1">
          <mxGeometry x="-359" y="1832" width="207" height="80" as="geometry" />
        </mxCell>
        <mxCell id="68sZiEqwBh2bfW3YKWfS-134" value="用户登录" style="ellipse;whiteSpace=wrap;html=1;fontSize=19;" vertex="1" parent="1">
          <mxGeometry x="-369" y="2093" width="213" height="73" as="geometry" />
        </mxCell>
        <mxCell id="68sZiEqwBh2bfW3YKWfS-135" value="用户缴费" style="ellipse;whiteSpace=wrap;html=1;fontSize=19;" vertex="1" parent="1">
          <mxGeometry x="-362" y="1958" width="213" height="73" as="geometry" />
        </mxCell>
        <mxCell id="68sZiEqwBh2bfW3YKWfS-137" value="权限验证" style="ellipse;whiteSpace=wrap;html=1;fontSize=19;" vertex="1" parent="1">
          <mxGeometry x="-106" y="1961" width="175" height="67" as="geometry" />
        </mxCell>
        <mxCell id="68sZiEqwBh2bfW3YKWfS-142" value="" style="endArrow=none;html=1;rounded=0;entryX=0.053;entryY=0.699;entryDx=0;entryDy=0;entryPerimeter=0;exitX=1;exitY=0.3333333333333333;exitDx=0;exitDy=0;exitPerimeter=0;" edge="1" parent="1" source="68sZiEqwBh2bfW3YKWfS-138" target="68sZiEqwBh2bfW3YKWfS-132">
          <mxGeometry width="50" height="50" relative="1" as="geometry">
            <mxPoint x="-558" y="1977" as="sourcePoint" />
            <mxPoint x="-508" y="1927" as="targetPoint" />
          </mxGeometry>
        </mxCell>
        <mxCell id="68sZiEqwBh2bfW3YKWfS-143" value="" style="endArrow=none;html=1;rounded=0;entryX=0;entryY=0.5;entryDx=0;entryDy=0;" edge="1" parent="1" source="68sZiEqwBh2bfW3YKWfS-138" target="68sZiEqwBh2bfW3YKWfS-133">
          <mxGeometry width="50" height="50" relative="1" as="geometry">
            <mxPoint x="-617" y="1979" as="sourcePoint" />
            <mxPoint x="-575" y="2080" as="targetPoint" />
          </mxGeometry>
        </mxCell>
        <mxCell id="68sZiEqwBh2bfW3YKWfS-144" value="" style="endArrow=none;html=1;rounded=0;entryX=0;entryY=0.5;entryDx=0;entryDy=0;" edge="1" parent="1" source="68sZiEqwBh2bfW3YKWfS-138" target="68sZiEqwBh2bfW3YKWfS-135">
          <mxGeometry width="50" height="50" relative="1" as="geometry">
            <mxPoint x="-657" y="2159" as="sourcePoint" />
            <mxPoint x="-607" y="2109" as="targetPoint" />
          </mxGeometry>
        </mxCell>
        <mxCell id="68sZiEqwBh2bfW3YKWfS-146" value="" style="endArrow=none;html=1;rounded=0;entryX=0;entryY=0.5;entryDx=0;entryDy=0;" edge="1" parent="1" source="68sZiEqwBh2bfW3YKWfS-138" target="68sZiEqwBh2bfW3YKWfS-134">
          <mxGeometry width="50" height="50" relative="1" as="geometry">
            <mxPoint x="-637" y="2203" as="sourcePoint" />
            <mxPoint x="-587" y="2153" as="targetPoint" />
          </mxGeometry>
        </mxCell>
        <mxCell id="68sZiEqwBh2bfW3YKWfS-147" value="" style="endArrow=open;dashed=1;html=1;dashPattern=1 3;strokeWidth=2;rounded=0;endFill=0;exitX=1;exitY=1;exitDx=0;exitDy=0;" edge="1" parent="1" source="68sZiEqwBh2bfW3YKWfS-132" target="68sZiEqwBh2bfW3YKWfS-137">
          <mxGeometry width="50" height="50" relative="1" as="geometry">
            <mxPoint x="-59" y="1914" as="sourcePoint" />
            <mxPoint x="-21" y="1951" as="targetPoint" />
          </mxGeometry>
        </mxCell>
        <mxCell id="68sZiEqwBh2bfW3YKWfS-148" value="" style="endArrow=open;dashed=1;html=1;dashPattern=1 3;strokeWidth=2;rounded=0;endFill=0;exitX=1;exitY=0.5;exitDx=0;exitDy=0;" edge="1" parent="1" source="68sZiEqwBh2bfW3YKWfS-133" target="68sZiEqwBh2bfW3YKWfS-137">
          <mxGeometry width="50" height="50" relative="1" as="geometry">
            <mxPoint x="-170" y="1779" as="sourcePoint" />
            <mxPoint x="-8" y="1971" as="targetPoint" />
          </mxGeometry>
        </mxCell>
        <mxCell id="68sZiEqwBh2bfW3YKWfS-149" value="" style="endArrow=open;dashed=1;html=1;dashPattern=1 3;strokeWidth=2;rounded=0;endFill=0;exitX=1;exitY=0.5;exitDx=0;exitDy=0;entryX=0;entryY=0.5;entryDx=0;entryDy=0;" edge="1" parent="1" source="68sZiEqwBh2bfW3YKWfS-135" target="68sZiEqwBh2bfW3YKWfS-137">
          <mxGeometry width="50" height="50" relative="1" as="geometry">
            <mxPoint x="-149" y="1981" as="sourcePoint" />
            <mxPoint x="-112.99999999999272" y="2093.5000000000005" as="targetPoint" />
          </mxGeometry>
        </mxCell>
        <mxCell id="68sZiEqwBh2bfW3YKWfS-151" value="&amp;lt;&amp;lt;include&amp;gt;&amp;gt;" style="text;html=1;align=center;verticalAlign=middle;resizable=0;points=[];autosize=1;strokeColor=none;fillColor=none;fontSize=16;" vertex="1" parent="1">
          <mxGeometry x="-129" y="1818" width="106" height="31" as="geometry" />
        </mxCell>
        <mxCell id="68sZiEqwBh2bfW3YKWfS-152" value="&amp;lt;&amp;lt;include&amp;gt;&amp;gt;" style="text;html=1;align=center;verticalAlign=middle;resizable=0;points=[];autosize=1;strokeColor=none;fillColor=none;fontSize=16;" vertex="1" parent="1">
          <mxGeometry x="-204" y="1902" width="106" height="31" as="geometry" />
        </mxCell>
        <mxCell id="68sZiEqwBh2bfW3YKWfS-153" value="&amp;lt;&amp;lt;include&amp;gt;&amp;gt;" style="text;html=1;align=center;verticalAlign=middle;resizable=0;points=[];autosize=1;strokeColor=none;fillColor=none;fontSize=16;" vertex="1" parent="1">
          <mxGeometry x="-171" y="2017" width="106" height="31" as="geometry" />
        </mxCell>
        <mxCell id="68sZiEqwBh2bfW3YKWfS-138" value="Actor" style="shape=umlActor;verticalLabelPosition=bottom;verticalAlign=top;outlineConnect=0;html=1;fontSize=1;" vertex="1" parent="1">
          <mxGeometry x="-606" y="1912" width="58" height="90" as="geometry" />
        </mxCell>
        <mxCell id="68sZiEqwBh2bfW3YKWfS-157" value="&lt;font style=&quot;font-size: 20px;&quot;&gt;user&lt;/font&gt;" style="text;html=1;align=center;verticalAlign=middle;resizable=0;points=[];autosize=1;strokeColor=none;fillColor=none;fontSize=20;" vertex="1" parent="1">
          <mxGeometry x="-605" y="1992" width="57" height="36" as="geometry" />
        </mxCell>
        <mxCell id="68sZiEqwBh2bfW3YKWfS-177" value="" style="group" vertex="1" connectable="0" parent="1">
          <mxGeometry x="-596" y="2322" width="680" height="600" as="geometry" />
        </mxCell>
        <mxCell id="68sZiEqwBh2bfW3YKWfS-159" value="" style="rounded=0;whiteSpace=wrap;html=1;" vertex="1" parent="68sZiEqwBh2bfW3YKWfS-177">
          <mxGeometry x="182" width="498" height="600" as="geometry" />
        </mxCell>
        <mxCell id="68sZiEqwBh2bfW3YKWfS-160" value="用户登录" style="ellipse;whiteSpace=wrap;html=1;fontSize=19;" vertex="1" parent="68sZiEqwBh2bfW3YKWfS-177">
          <mxGeometry x="244" y="73" width="213" height="73" as="geometry" />
        </mxCell>
        <mxCell id="68sZiEqwBh2bfW3YKWfS-161" value="切换用户" style="ellipse;whiteSpace=wrap;html=1;fontSize=19;" vertex="1" parent="68sZiEqwBh2bfW3YKWfS-177">
          <mxGeometry x="247" y="198" width="207" height="80" as="geometry" />
        </mxCell>
        <mxCell id="68sZiEqwBh2bfW3YKWfS-162" value="用户退出" style="ellipse;whiteSpace=wrap;html=1;fontSize=19;" vertex="1" parent="68sZiEqwBh2bfW3YKWfS-177">
          <mxGeometry x="251" y="456" width="213" height="73" as="geometry" />
        </mxCell>
        <mxCell id="68sZiEqwBh2bfW3YKWfS-163" value="获取验证码" style="ellipse;whiteSpace=wrap;html=1;fontSize=19;" vertex="1" parent="68sZiEqwBh2bfW3YKWfS-177">
          <mxGeometry x="244" y="324" width="213" height="73" as="geometry" />
        </mxCell>
        <mxCell id="68sZiEqwBh2bfW3YKWfS-164" value="用户验证" style="ellipse;whiteSpace=wrap;html=1;fontSize=19;" vertex="1" parent="68sZiEqwBh2bfW3YKWfS-177">
          <mxGeometry x="501" y="231" width="175" height="67" as="geometry" />
        </mxCell>
        <mxCell id="68sZiEqwBh2bfW3YKWfS-165" value="" style="endArrow=none;html=1;rounded=0;entryX=0.053;entryY=0.699;entryDx=0;entryDy=0;entryPerimeter=0;exitX=1;exitY=0.3333333333333333;exitDx=0;exitDy=0;exitPerimeter=0;" edge="1" parent="68sZiEqwBh2bfW3YKWfS-177" source="68sZiEqwBh2bfW3YKWfS-175" target="68sZiEqwBh2bfW3YKWfS-160">
          <mxGeometry width="50" height="50" relative="1" as="geometry">
            <mxPoint x="48" y="343" as="sourcePoint" />
            <mxPoint x="98" y="293" as="targetPoint" />
          </mxGeometry>
        </mxCell>
        <mxCell id="68sZiEqwBh2bfW3YKWfS-166" value="" style="endArrow=none;html=1;rounded=0;entryX=0;entryY=0.5;entryDx=0;entryDy=0;" edge="1" parent="68sZiEqwBh2bfW3YKWfS-177" source="68sZiEqwBh2bfW3YKWfS-175" target="68sZiEqwBh2bfW3YKWfS-161">
          <mxGeometry width="50" height="50" relative="1" as="geometry">
            <mxPoint x="-11" y="345" as="sourcePoint" />
            <mxPoint x="31" y="446" as="targetPoint" />
          </mxGeometry>
        </mxCell>
        <mxCell id="68sZiEqwBh2bfW3YKWfS-167" value="" style="endArrow=none;html=1;rounded=0;entryX=0;entryY=0.5;entryDx=0;entryDy=0;" edge="1" parent="68sZiEqwBh2bfW3YKWfS-177" source="68sZiEqwBh2bfW3YKWfS-175" target="68sZiEqwBh2bfW3YKWfS-163">
          <mxGeometry width="50" height="50" relative="1" as="geometry">
            <mxPoint x="-51" y="525" as="sourcePoint" />
            <mxPoint x="-1" y="475" as="targetPoint" />
          </mxGeometry>
        </mxCell>
        <mxCell id="68sZiEqwBh2bfW3YKWfS-168" value="" style="endArrow=none;html=1;rounded=0;entryX=0;entryY=0.5;entryDx=0;entryDy=0;" edge="1" parent="68sZiEqwBh2bfW3YKWfS-177" source="68sZiEqwBh2bfW3YKWfS-175" target="68sZiEqwBh2bfW3YKWfS-162">
          <mxGeometry width="50" height="50" relative="1" as="geometry">
            <mxPoint x="-31" y="569" as="sourcePoint" />
            <mxPoint x="19" y="519" as="targetPoint" />
          </mxGeometry>
        </mxCell>
        <mxCell id="68sZiEqwBh2bfW3YKWfS-169" value="" style="endArrow=open;dashed=1;html=1;dashPattern=1 3;strokeWidth=2;rounded=0;endFill=0;exitX=1;exitY=1;exitDx=0;exitDy=0;" edge="1" parent="68sZiEqwBh2bfW3YKWfS-177" source="68sZiEqwBh2bfW3YKWfS-160" target="68sZiEqwBh2bfW3YKWfS-164">
          <mxGeometry width="50" height="50" relative="1" as="geometry">
            <mxPoint x="547" y="280" as="sourcePoint" />
            <mxPoint x="585" y="317" as="targetPoint" />
          </mxGeometry>
        </mxCell>
        <mxCell id="68sZiEqwBh2bfW3YKWfS-170" value="" style="endArrow=open;dashed=1;html=1;dashPattern=1 3;strokeWidth=2;rounded=0;endFill=0;exitX=1;exitY=0.5;exitDx=0;exitDy=0;" edge="1" parent="68sZiEqwBh2bfW3YKWfS-177" source="68sZiEqwBh2bfW3YKWfS-161" target="68sZiEqwBh2bfW3YKWfS-164">
          <mxGeometry width="50" height="50" relative="1" as="geometry">
            <mxPoint x="436" y="145" as="sourcePoint" />
            <mxPoint x="598" y="337" as="targetPoint" />
          </mxGeometry>
        </mxCell>
        <mxCell id="68sZiEqwBh2bfW3YKWfS-172" value="&amp;lt;&amp;lt;include&amp;gt;&amp;gt;" style="text;html=1;align=center;verticalAlign=middle;resizable=0;points=[];autosize=1;strokeColor=none;fillColor=none;fontSize=16;" vertex="1" parent="68sZiEqwBh2bfW3YKWfS-177">
          <mxGeometry x="467" y="148" width="106" height="31" as="geometry" />
        </mxCell>
        <mxCell id="68sZiEqwBh2bfW3YKWfS-173" value="&amp;lt;&amp;lt;include&amp;gt;&amp;gt;" style="text;html=1;align=center;verticalAlign=middle;resizable=0;points=[];autosize=1;strokeColor=none;fillColor=none;fontSize=16;" vertex="1" parent="68sZiEqwBh2bfW3YKWfS-177">
          <mxGeometry x="419" y="200" width="106" height="31" as="geometry" />
        </mxCell>
        <mxCell id="68sZiEqwBh2bfW3YKWfS-175" value="Actor" style="shape=umlActor;verticalLabelPosition=bottom;verticalAlign=top;outlineConnect=0;html=1;fontSize=1;" vertex="1" parent="68sZiEqwBh2bfW3YKWfS-177">
          <mxGeometry y="278" width="58" height="90" as="geometry" />
        </mxCell>
        <mxCell id="68sZiEqwBh2bfW3YKWfS-176" value="&lt;font style=&quot;font-size: 20px;&quot;&gt;user&lt;/font&gt;" style="text;html=1;align=center;verticalAlign=middle;resizable=0;points=[];autosize=1;strokeColor=none;fillColor=none;fontSize=20;" vertex="1" parent="68sZiEqwBh2bfW3YKWfS-177">
          <mxGeometry x="1" y="358" width="57" height="36" as="geometry" />
        </mxCell>
        <mxCell id="68sZiEqwBh2bfW3YKWfS-178" value="" style="group" vertex="1" connectable="0" parent="1">
          <mxGeometry x="-1474" y="1642" width="826" height="641" as="geometry" />
        </mxCell>
        <mxCell id="68sZiEqwBh2bfW3YKWfS-179" value="" style="rounded=0;whiteSpace=wrap;html=1;" vertex="1" parent="68sZiEqwBh2bfW3YKWfS-178">
          <mxGeometry x="211" y="35" width="537" height="562" as="geometry" />
        </mxCell>
        <mxCell id="68sZiEqwBh2bfW3YKWfS-180" value="账单查询" style="ellipse;whiteSpace=wrap;html=1;fontSize=19;" vertex="1" parent="68sZiEqwBh2bfW3YKWfS-178">
          <mxGeometry x="274.83272727272725" y="160.98159509202455" width="178.71636363636364" height="74.76809815950921" as="geometry" />
        </mxCell>
        <mxCell id="68sZiEqwBh2bfW3YKWfS-181" value="账单导出" style="ellipse;whiteSpace=wrap;html=1;fontSize=19;" vertex="1" parent="68sZiEqwBh2bfW3YKWfS-178">
          <mxGeometry x="267.9644121212121" y="282.6993865030675" width="185.5846787878788" height="72.56932515337424" as="geometry" />
        </mxCell>
        <mxCell id="68sZiEqwBh2bfW3YKWfS-183" value="账单分析" style="ellipse;whiteSpace=wrap;html=1;fontSize=19;" vertex="1" parent="68sZiEqwBh2bfW3YKWfS-178">
          <mxGeometry x="272.14947878787876" y="408.34355828220856" width="177.21454545454546" height="73.94355828220858" as="geometry" />
        </mxCell>
        <mxCell id="68sZiEqwBh2bfW3YKWfS-185" value="" style="endArrow=none;html=1;rounded=0;entryX=0.053;entryY=0.699;entryDx=0;entryDy=0;entryPerimeter=0;exitX=1;exitY=0.3333333333333333;exitDx=0;exitDy=0;exitPerimeter=0;" edge="1" parent="68sZiEqwBh2bfW3YKWfS-178" source="68sZiEqwBh2bfW3YKWfS-193" target="68sZiEqwBh2bfW3YKWfS-180">
          <mxGeometry width="50" height="50" relative="1" as="geometry">
            <mxPoint x="58.30588235294117" y="365.86666666666656" as="sourcePoint" />
            <mxPoint x="119.04117647058823" y="312.5333333333333" as="targetPoint" />
          </mxGeometry>
        </mxCell>
        <mxCell id="68sZiEqwBh2bfW3YKWfS-186" value="" style="endArrow=none;html=1;rounded=0;entryX=0;entryY=0.5;entryDx=0;entryDy=0;" edge="1" parent="68sZiEqwBh2bfW3YKWfS-178" source="68sZiEqwBh2bfW3YKWfS-193" target="68sZiEqwBh2bfW3YKWfS-181">
          <mxGeometry width="50" height="50" relative="1" as="geometry">
            <mxPoint x="-13.36176470588235" y="367.99999999999994" as="sourcePoint" />
            <mxPoint x="37.65588235294117" y="475.73333333333323" as="targetPoint" />
          </mxGeometry>
        </mxCell>
        <mxCell id="68sZiEqwBh2bfW3YKWfS-187" value="" style="endArrow=none;html=1;rounded=0;entryX=0;entryY=0.5;entryDx=0;entryDy=0;" edge="1" parent="68sZiEqwBh2bfW3YKWfS-178" source="68sZiEqwBh2bfW3YKWfS-193" target="68sZiEqwBh2bfW3YKWfS-183">
          <mxGeometry width="50" height="50" relative="1" as="geometry">
            <mxPoint x="-61.949999999999996" y="560" as="sourcePoint" />
            <mxPoint x="-1.214705882352941" y="506.6666666666665" as="targetPoint" />
          </mxGeometry>
        </mxCell>
        <mxCell id="68sZiEqwBh2bfW3YKWfS-193" value="Actor" style="shape=umlActor;verticalLabelPosition=bottom;verticalAlign=top;outlineConnect=0;html=1;fontSize=1;" vertex="1" parent="68sZiEqwBh2bfW3YKWfS-178">
          <mxGeometry x="37" y="296.53333333333325" width="70.45294117647057" height="95.99999999999999" as="geometry" />
        </mxCell>
        <mxCell id="68sZiEqwBh2bfW3YKWfS-194" value="&lt;font style=&quot;font-size: 20px;&quot;&gt;user&lt;/font&gt;" style="text;html=1;align=center;verticalAlign=middle;resizable=0;points=[];autosize=1;strokeColor=none;fillColor=none;fontSize=20;" vertex="1" parent="68sZiEqwBh2bfW3YKWfS-178">
          <mxGeometry x="46.00470588235294" y="397.9966666666666" width="57" height="36" as="geometry" />
        </mxCell>
        <mxCell id="68sZiEqwBh2bfW3YKWfS-206" value="pdf生成" style="ellipse;whiteSpace=wrap;html=1;fontSize=19;" vertex="1" parent="68sZiEqwBh2bfW3YKWfS-178">
          <mxGeometry x="516.6254545454545" y="281.6000000000002" width="178.71636363636364" height="74.76809815950921" as="geometry" />
        </mxCell>
        <mxCell id="68sZiEqwBh2bfW3YKWfS-207" value="视图更新" style="ellipse;whiteSpace=wrap;html=1;fontSize=19;" vertex="1" parent="68sZiEqwBh2bfW3YKWfS-178">
          <mxGeometry x="514.6230303030303" y="159.01840490797545" width="178.71636363636364" height="74.76809815950921" as="geometry" />
        </mxCell>
        <mxCell id="68sZiEqwBh2bfW3YKWfS-208" value="月份搜素数据" style="ellipse;whiteSpace=wrap;html=1;fontSize=19;" vertex="1" parent="68sZiEqwBh2bfW3YKWfS-178">
          <mxGeometry x="514.6230303030303" y="404.41717791411065" width="177.21454545454546" height="73.94355828220858" as="geometry" />
        </mxCell>
        <mxCell id="68sZiEqwBh2bfW3YKWfS-190" value="" style="endArrow=open;dashed=1;html=1;dashPattern=1 3;strokeWidth=2;rounded=0;endFill=0;exitX=1;exitY=0.5;exitDx=0;exitDy=0;entryX=0;entryY=0.5;entryDx=0;entryDy=0;" edge="1" parent="68sZiEqwBh2bfW3YKWfS-178" source="68sZiEqwBh2bfW3YKWfS-183" target="68sZiEqwBh2bfW3YKWfS-208">
          <mxGeometry width="50" height="50" relative="1" as="geometry">
            <mxPoint x="421.51030303030075" y="565.1288343558285" as="sourcePoint" />
            <mxPoint x="523.6339393939394" y="530.0613496932515" as="targetPoint" />
          </mxGeometry>
        </mxCell>
        <mxCell id="68sZiEqwBh2bfW3YKWfS-209" value="" style="endArrow=open;dashed=1;html=1;dashPattern=1 3;strokeWidth=2;rounded=0;endFill=0;exitX=1;exitY=0.5;exitDx=0;exitDy=0;entryX=0;entryY=0.5;entryDx=0;entryDy=0;" edge="1" parent="68sZiEqwBh2bfW3YKWfS-178" source="68sZiEqwBh2bfW3YKWfS-180" target="68sZiEqwBh2bfW3YKWfS-207">
          <mxGeometry width="50" height="50" relative="1" as="geometry">
            <mxPoint x="475.57575757575756" y="420.1226993865031" as="sourcePoint" />
            <mxPoint x="540.6545454545454" y="416.1963190184049" as="targetPoint" />
          </mxGeometry>
        </mxCell>
        <mxCell id="68sZiEqwBh2bfW3YKWfS-211" value="" style="endArrow=open;dashed=1;html=1;dashPattern=1 3;strokeWidth=2;rounded=0;endFill=0;exitX=1;exitY=0.5;exitDx=0;exitDy=0;entryX=0;entryY=0.5;entryDx=0;entryDy=0;" edge="1" parent="68sZiEqwBh2bfW3YKWfS-178" source="68sZiEqwBh2bfW3YKWfS-181" target="68sZiEqwBh2bfW3YKWfS-206">
          <mxGeometry width="50" height="50" relative="1" as="geometry">
            <mxPoint x="439.46" y="378" as="sourcePoint" />
            <mxPoint x="505.46" y="374" as="targetPoint" />
          </mxGeometry>
        </mxCell>
        <mxCell id="68sZiEqwBh2bfW3YKWfS-212" value="" style="endArrow=open;dashed=1;html=1;dashPattern=1 3;strokeWidth=2;rounded=0;endFill=0;exitX=1;exitY=0.5;exitDx=0;exitDy=0;entryX=0.024;entryY=0.619;entryDx=0;entryDy=0;entryPerimeter=0;" edge="1" parent="68sZiEqwBh2bfW3YKWfS-178" source="68sZiEqwBh2bfW3YKWfS-183" target="68sZiEqwBh2bfW3YKWfS-207">
          <mxGeometry width="50" height="50" relative="1" as="geometry">
            <mxPoint x="469" y="465" as="sourcePoint" />
            <mxPoint x="535" y="461" as="targetPoint" />
          </mxGeometry>
        </mxCell>
        <mxCell id="68sZiEqwBh2bfW3YKWfS-191" value="&amp;lt;&amp;lt;include&amp;gt;&amp;gt;" style="text;html=1;align=center;verticalAlign=middle;resizable=0;points=[];autosize=1;strokeColor=none;fillColor=none;fontSize=16;" vertex="1" parent="68sZiEqwBh2bfW3YKWfS-178">
          <mxGeometry x="422.00088235294106" y="459.99666666666644" width="106" height="31" as="geometry" />
        </mxCell>
        <mxCell id="68sZiEqwBh2bfW3YKWfS-214" value="&amp;lt;&amp;lt;include&amp;gt;&amp;gt;" style="text;html=1;align=center;verticalAlign=middle;resizable=0;points=[];autosize=1;strokeColor=none;fillColor=none;fontSize=16;" vertex="1" parent="68sZiEqwBh2bfW3YKWfS-178">
          <mxGeometry x="456.00088235294106" y="377.34666666666635" width="106" height="31" as="geometry" />
        </mxCell>
        <mxCell id="68sZiEqwBh2bfW3YKWfS-215" value="&amp;lt;&amp;lt;include&amp;gt;&amp;gt;" style="text;html=1;align=center;verticalAlign=middle;resizable=0;points=[];autosize=1;strokeColor=none;fillColor=none;fontSize=16;" vertex="1" parent="68sZiEqwBh2bfW3YKWfS-178">
          <mxGeometry x="427.00088235294106" y="159.01666666666642" width="106" height="31" as="geometry" />
        </mxCell>
        <mxCell id="68sZiEqwBh2bfW3YKWfS-216" value="&amp;lt;&amp;lt;include&amp;gt;&amp;gt;" style="text;html=1;align=center;verticalAlign=middle;resizable=0;points=[];autosize=1;strokeColor=none;fillColor=none;fontSize=16;" vertex="1" parent="68sZiEqwBh2bfW3YKWfS-178">
          <mxGeometry x="459.00088235294106" y="332.99666666666644" width="106" height="31" as="geometry" />
        </mxCell>
        <mxCell id="68sZiEqwBh2bfW3YKWfS-217" value="" style="group" vertex="1" connectable="0" parent="1">
          <mxGeometry x="345" y="2256" width="841" height="641" as="geometry" />
        </mxCell>
        <mxCell id="68sZiEqwBh2bfW3YKWfS-218" value="" style="rounded=0;whiteSpace=wrap;html=1;" vertex="1" parent="68sZiEqwBh2bfW3YKWfS-217">
          <mxGeometry x="170" y="50" width="634.5" height="595" as="geometry" />
        </mxCell>
        <mxCell id="68sZiEqwBh2bfW3YKWfS-219" value="用户缴费" style="ellipse;whiteSpace=wrap;html=1;fontSize=19;" vertex="1" parent="68sZiEqwBh2bfW3YKWfS-217">
          <mxGeometry x="194.00272727272727" y="312.00159509202456" width="178.71636363636364" height="74.76809815950921" as="geometry" />
        </mxCell>
        <mxCell id="68sZiEqwBh2bfW3YKWfS-222" value="" style="endArrow=none;html=1;rounded=0;entryX=0;entryY=0.5;entryDx=0;entryDy=0;exitX=1;exitY=0.3333333333333333;exitDx=0;exitDy=0;exitPerimeter=0;" edge="1" parent="68sZiEqwBh2bfW3YKWfS-217" source="68sZiEqwBh2bfW3YKWfS-225" target="68sZiEqwBh2bfW3YKWfS-219">
          <mxGeometry width="50" height="50" relative="1" as="geometry">
            <mxPoint x="58.30588235294117" y="365.86666666666656" as="sourcePoint" />
            <mxPoint x="119.04117647058823" y="312.5333333333333" as="targetPoint" />
          </mxGeometry>
        </mxCell>
        <mxCell id="68sZiEqwBh2bfW3YKWfS-225" value="Actor" style="shape=umlActor;verticalLabelPosition=bottom;verticalAlign=top;outlineConnect=0;html=1;fontSize=1;" vertex="1" parent="68sZiEqwBh2bfW3YKWfS-217">
          <mxGeometry x="37" y="296.53333333333325" width="70.45294117647057" height="95.99999999999999" as="geometry" />
        </mxCell>
        <mxCell id="68sZiEqwBh2bfW3YKWfS-226" value="&lt;font style=&quot;font-size: 20px;&quot;&gt;user&lt;/font&gt;" style="text;html=1;align=center;verticalAlign=middle;resizable=0;points=[];autosize=1;strokeColor=none;fillColor=none;fontSize=20;" vertex="1" parent="68sZiEqwBh2bfW3YKWfS-217">
          <mxGeometry x="46.00470588235294" y="397.9966666666666" width="57" height="36" as="geometry" />
        </mxCell>
        <mxCell id="68sZiEqwBh2bfW3YKWfS-238" value="缴费项目选择" style="ellipse;whiteSpace=wrap;html=1;fontSize=19;" vertex="1" parent="68sZiEqwBh2bfW3YKWfS-217">
          <mxGeometry x="607.0027272727273" y="230.00159509202467" width="178.71636363636364" height="74.76809815950921" as="geometry" />
        </mxCell>
        <mxCell id="68sZiEqwBh2bfW3YKWfS-239" value="缴费城市选择" style="ellipse;whiteSpace=wrap;html=1;fontSize=19;" vertex="1" parent="68sZiEqwBh2bfW3YKWfS-217">
          <mxGeometry x="611.0027272727273" y="445.0015950920247" width="178.71636363636364" height="74.76809815950921" as="geometry" />
        </mxCell>
        <mxCell id="68sZiEqwBh2bfW3YKWfS-240" value="输入户号" style="ellipse;whiteSpace=wrap;html=1;fontSize=19;" vertex="1" parent="68sZiEqwBh2bfW3YKWfS-217">
          <mxGeometry x="372.72" y="157.99999999999997" width="178.72" height="80" as="geometry" />
        </mxCell>
        <mxCell id="68sZiEqwBh2bfW3YKWfS-241" value="输入缴费金额" style="ellipse;whiteSpace=wrap;html=1;fontSize=19;" vertex="1" parent="68sZiEqwBh2bfW3YKWfS-217">
          <mxGeometry x="360" y="461" width="178.72" height="80" as="geometry" />
        </mxCell>
        <mxCell id="68sZiEqwBh2bfW3YKWfS-244" value="" style="endArrow=open;dashed=1;html=1;dashPattern=1 3;strokeWidth=2;rounded=0;endFill=0;exitX=1;exitY=0.5;exitDx=0;exitDy=0;entryX=0;entryY=0.5;entryDx=0;entryDy=0;" edge="1" parent="68sZiEqwBh2bfW3YKWfS-217" source="68sZiEqwBh2bfW3YKWfS-240" target="68sZiEqwBh2bfW3YKWfS-238">
          <mxGeometry width="50" height="50" relative="1" as="geometry">
            <mxPoint x="736.0000000000009" y="485.77259634888605" as="sourcePoint" />
            <mxPoint x="542" y="330.73" as="targetPoint" />
          </mxGeometry>
        </mxCell>
        <mxCell id="68sZiEqwBh2bfW3YKWfS-245" value="" style="endArrow=open;dashed=1;html=1;dashPattern=1 3;strokeWidth=2;rounded=0;endFill=0;exitX=1;exitY=0.5;exitDx=0;exitDy=0;entryX=0;entryY=0.5;entryDx=0;entryDy=0;" edge="1" parent="68sZiEqwBh2bfW3YKWfS-217" source="68sZiEqwBh2bfW3YKWfS-240" target="68sZiEqwBh2bfW3YKWfS-239">
          <mxGeometry width="50" height="50" relative="1" as="geometry">
            <mxPoint x="574" y="267" as="sourcePoint" />
            <mxPoint x="648" y="264" as="targetPoint" />
          </mxGeometry>
        </mxCell>
        <mxCell id="68sZiEqwBh2bfW3YKWfS-247" value="" style="endArrow=open;dashed=1;html=1;dashPattern=1 3;strokeWidth=2;rounded=0;endFill=0;exitX=1;exitY=0.5;exitDx=0;exitDy=0;entryX=0;entryY=0.5;entryDx=0;entryDy=0;" edge="1" parent="68sZiEqwBh2bfW3YKWfS-217" source="68sZiEqwBh2bfW3YKWfS-241" target="68sZiEqwBh2bfW3YKWfS-238">
          <mxGeometry width="50" height="50" relative="1" as="geometry">
            <mxPoint x="579" y="262" as="sourcePoint" />
            <mxPoint x="636" y="251" as="targetPoint" />
          </mxGeometry>
        </mxCell>
        <mxCell id="68sZiEqwBh2bfW3YKWfS-250" value="" style="endArrow=open;dashed=1;html=1;dashPattern=1 3;strokeWidth=2;rounded=0;endFill=0;exitX=0.5;exitY=0;exitDx=0;exitDy=0;entryX=0;entryY=0.5;entryDx=0;entryDy=0;" edge="1" parent="68sZiEqwBh2bfW3YKWfS-217" source="68sZiEqwBh2bfW3YKWfS-219" target="68sZiEqwBh2bfW3YKWfS-240">
          <mxGeometry width="50" height="50" relative="1" as="geometry">
            <mxPoint x="574" y="461" as="sourcePoint" />
            <mxPoint x="648" y="264" as="targetPoint" />
          </mxGeometry>
        </mxCell>
        <mxCell id="68sZiEqwBh2bfW3YKWfS-251" value="" style="endArrow=open;dashed=1;html=1;dashPattern=1 3;strokeWidth=2;rounded=0;endFill=0;exitX=0.576;exitY=0.99;exitDx=0;exitDy=0;entryX=0;entryY=0.5;entryDx=0;entryDy=0;exitPerimeter=0;" edge="1" parent="68sZiEqwBh2bfW3YKWfS-217" source="68sZiEqwBh2bfW3YKWfS-219" target="68sZiEqwBh2bfW3YKWfS-241">
          <mxGeometry width="50" height="50" relative="1" as="geometry">
            <mxPoint x="293" y="322" as="sourcePoint" />
            <mxPoint x="376" y="177" as="targetPoint" />
          </mxGeometry>
        </mxCell>
        <mxCell id="68sZiEqwBh2bfW3YKWfS-246" value="" style="endArrow=open;dashed=1;html=1;dashPattern=1 3;strokeWidth=2;rounded=0;endFill=0;exitX=1;exitY=0.5;exitDx=0;exitDy=0;entryX=0;entryY=0.5;entryDx=0;entryDy=0;" edge="1" parent="68sZiEqwBh2bfW3YKWfS-217" source="68sZiEqwBh2bfW3YKWfS-241" target="68sZiEqwBh2bfW3YKWfS-239">
          <mxGeometry width="50" height="50" relative="1" as="geometry">
            <mxPoint x="579" y="262" as="sourcePoint" />
            <mxPoint x="633" y="441" as="targetPoint" />
          </mxGeometry>
        </mxCell>
        <mxCell id="68sZiEqwBh2bfW3YKWfS-252" value="&amp;lt;&amp;lt;include&amp;gt;&amp;gt;" style="text;html=1;align=center;verticalAlign=middle;resizable=0;points=[];autosize=1;strokeColor=none;fillColor=none;fontSize=16;" vertex="1" parent="68sZiEqwBh2bfW3YKWfS-217">
          <mxGeometry x="226" y="227" width="106" height="31" as="geometry" />
        </mxCell>
        <mxCell id="68sZiEqwBh2bfW3YKWfS-253" value="&amp;lt;&amp;lt;include&amp;gt;&amp;gt;" style="text;html=1;align=center;verticalAlign=middle;resizable=0;points=[];autosize=1;strokeColor=none;fillColor=none;fontSize=16;" vertex="1" parent="68sZiEqwBh2bfW3YKWfS-217">
          <mxGeometry x="237" y="441" width="106" height="31" as="geometry" />
        </mxCell>
        <mxCell id="68sZiEqwBh2bfW3YKWfS-254" value="&amp;lt;&amp;lt;include&amp;gt;&amp;gt;" style="text;html=1;align=center;verticalAlign=middle;resizable=0;points=[];autosize=1;strokeColor=none;fillColor=none;fontSize=16;" vertex="1" parent="68sZiEqwBh2bfW3YKWfS-217">
          <mxGeometry x="557" y="187" width="106" height="31" as="geometry" />
        </mxCell>
        <mxCell id="68sZiEqwBh2bfW3YKWfS-255" value="&amp;lt;&amp;lt;include&amp;gt;&amp;gt;" style="text;html=1;align=center;verticalAlign=middle;resizable=0;points=[];autosize=1;strokeColor=none;fillColor=none;fontSize=16;" vertex="1" parent="68sZiEqwBh2bfW3YKWfS-217">
          <mxGeometry x="474" y="265.5300000000002" width="106" height="31" as="geometry" />
        </mxCell>
        <mxCell id="68sZiEqwBh2bfW3YKWfS-256" value="&amp;lt;&amp;lt;include&amp;gt;&amp;gt;" style="text;html=1;align=center;verticalAlign=middle;resizable=0;points=[];autosize=1;strokeColor=none;fillColor=none;fontSize=16;" vertex="1" parent="68sZiEqwBh2bfW3YKWfS-217">
          <mxGeometry x="478" y="403.0000000000002" width="106" height="31" as="geometry" />
        </mxCell>
        <mxCell id="68sZiEqwBh2bfW3YKWfS-257" value="&amp;lt;&amp;lt;include&amp;gt;&amp;gt;" style="text;html=1;align=center;verticalAlign=middle;resizable=0;points=[];autosize=1;strokeColor=none;fillColor=none;fontSize=16;" vertex="1" parent="68sZiEqwBh2bfW3YKWfS-217">
          <mxGeometry x="527" y="515" width="106" height="31" as="geometry" />
        </mxCell>
        <mxCell id="68sZiEqwBh2bfW3YKWfS-268" style="edgeStyle=orthogonalEdgeStyle;rounded=0;orthogonalLoop=1;jettySize=auto;html=1;entryX=0;entryY=0.5;entryDx=0;entryDy=0;" edge="1" parent="1" source="68sZiEqwBh2bfW3YKWfS-260" target="68sZiEqwBh2bfW3YKWfS-262">
          <mxGeometry relative="1" as="geometry" />
        </mxCell>
        <mxCell id="68sZiEqwBh2bfW3YKWfS-260" value="开始" style="strokeWidth=2;html=1;shape=mxgraph.flowchart.start_1;whiteSpace=wrap;fontSize=13;" vertex="1" parent="1">
          <mxGeometry x="-3347" y="2787" width="100" height="60" as="geometry" />
        </mxCell>
        <mxCell id="68sZiEqwBh2bfW3YKWfS-269" style="edgeStyle=orthogonalEdgeStyle;rounded=0;orthogonalLoop=1;jettySize=auto;html=1;entryX=0.5;entryY=0;entryDx=0;entryDy=0;" edge="1" parent="1" source="68sZiEqwBh2bfW3YKWfS-262" target="68sZiEqwBh2bfW3YKWfS-263">
          <mxGeometry relative="1" as="geometry" />
        </mxCell>
        <mxCell id="68sZiEqwBh2bfW3YKWfS-262" value="登录操作" style="rounded=1;whiteSpace=wrap;html=1;absoluteArcSize=1;arcSize=14;strokeWidth=2;fontSize=13;" vertex="1" parent="1">
          <mxGeometry x="-3190" y="2786" width="100" height="61" as="geometry" />
        </mxCell>
        <mxCell id="68sZiEqwBh2bfW3YKWfS-270" style="edgeStyle=orthogonalEdgeStyle;rounded=0;orthogonalLoop=1;jettySize=auto;html=1;entryX=0.5;entryY=0;entryDx=0;entryDy=0;" edge="1" parent="1" source="68sZiEqwBh2bfW3YKWfS-263" target="68sZiEqwBh2bfW3YKWfS-264">
          <mxGeometry relative="1" as="geometry" />
        </mxCell>
        <mxCell id="68sZiEqwBh2bfW3YKWfS-263" value="填写手机号" style="rounded=1;whiteSpace=wrap;html=1;absoluteArcSize=1;arcSize=14;strokeWidth=2;fontSize=13;" vertex="1" parent="1">
          <mxGeometry x="-3190" y="2881" width="100" height="61" as="geometry" />
        </mxCell>
        <mxCell id="68sZiEqwBh2bfW3YKWfS-264" value="获取验证码" style="rounded=1;whiteSpace=wrap;html=1;absoluteArcSize=1;arcSize=14;strokeWidth=2;fontSize=13;" vertex="1" parent="1">
          <mxGeometry x="-3190" y="2976" width="100" height="61" as="geometry" />
        </mxCell>
        <mxCell id="68sZiEqwBh2bfW3YKWfS-265" value="后端判断验证码" style="strokeWidth=2;html=1;shape=mxgraph.flowchart.decision;whiteSpace=wrap;fontSize=13;" vertex="1" parent="1">
          <mxGeometry x="-3198" y="3074" width="116" height="83" as="geometry" />
        </mxCell>
        <mxCell id="68sZiEqwBh2bfW3YKWfS-267" value="结束" style="strokeWidth=2;html=1;shape=mxgraph.flowchart.start_1;whiteSpace=wrap;fontSize=13;" vertex="1" parent="1">
          <mxGeometry x="-3190" y="3219" width="100" height="60" as="geometry" />
        </mxCell>
        <mxCell id="68sZiEqwBh2bfW3YKWfS-271" style="edgeStyle=orthogonalEdgeStyle;rounded=0;orthogonalLoop=1;jettySize=auto;html=1;entryX=0.5;entryY=0;entryDx=0;entryDy=0;entryPerimeter=0;" edge="1" parent="1" source="68sZiEqwBh2bfW3YKWfS-264" target="68sZiEqwBh2bfW3YKWfS-265">
          <mxGeometry relative="1" as="geometry" />
        </mxCell>
        <mxCell id="68sZiEqwBh2bfW3YKWfS-272" style="edgeStyle=orthogonalEdgeStyle;rounded=0;orthogonalLoop=1;jettySize=auto;html=1;entryX=0.5;entryY=0;entryDx=0;entryDy=0;entryPerimeter=0;" edge="1" parent="1" source="68sZiEqwBh2bfW3YKWfS-265" target="68sZiEqwBh2bfW3YKWfS-267">
          <mxGeometry relative="1" as="geometry" />
        </mxCell>
        <mxCell id="68sZiEqwBh2bfW3YKWfS-275" value="通过" style="text;html=1;align=center;verticalAlign=middle;resizable=0;points=[];autosize=1;strokeColor=none;fillColor=none;fontSize=13;" vertex="1" parent="1">
          <mxGeometry x="-3181" y="3171" width="44" height="28" as="geometry" />
        </mxCell>
        <mxCell id="68sZiEqwBh2bfW3YKWfS-277" value="不通过" style="text;html=1;align=center;verticalAlign=middle;resizable=0;points=[];autosize=1;strokeColor=none;fillColor=none;fontSize=13;" vertex="1" parent="1">
          <mxGeometry x="-3048" y="3080" width="57" height="28" as="geometry" />
        </mxCell>
        <mxCell id="68sZiEqwBh2bfW3YKWfS-281" value="" style="endArrow=classic;html=1;rounded=0;exitX=1;exitY=0.5;exitDx=0;exitDy=0;exitPerimeter=0;entryX=1;entryY=0.5;entryDx=0;entryDy=0;" edge="1" parent="1" source="68sZiEqwBh2bfW3YKWfS-265" target="68sZiEqwBh2bfW3YKWfS-264">
          <mxGeometry width="50" height="50" relative="1" as="geometry">
            <mxPoint x="-2963" y="3185" as="sourcePoint" />
            <mxPoint x="-2965" y="2990" as="targetPoint" />
            <Array as="points">
              <mxPoint x="-2969" y="3116" />
              <mxPoint x="-2969" y="3007" />
            </Array>
          </mxGeometry>
        </mxCell>
        <mxCell id="68sZiEqwBh2bfW3YKWfS-285" style="edgeStyle=orthogonalEdgeStyle;rounded=0;orthogonalLoop=1;jettySize=auto;html=1;entryX=0;entryY=0.5;entryDx=0;entryDy=0;" edge="1" parent="1" source="68sZiEqwBh2bfW3YKWfS-283" target="68sZiEqwBh2bfW3YKWfS-284">
          <mxGeometry relative="1" as="geometry" />
        </mxCell>
        <mxCell id="68sZiEqwBh2bfW3YKWfS-283" value="开始" style="strokeWidth=2;html=1;shape=mxgraph.flowchart.start_1;whiteSpace=wrap;fontSize=13;" vertex="1" parent="1">
          <mxGeometry x="-2881" y="2886" width="100" height="60" as="geometry" />
        </mxCell>
        <mxCell id="68sZiEqwBh2bfW3YKWfS-284" value="账单分析主界面" style="rounded=1;whiteSpace=wrap;html=1;absoluteArcSize=1;arcSize=14;strokeWidth=2;fontSize=13;" vertex="1" parent="1">
          <mxGeometry x="-2727" y="2886" width="100" height="61" as="geometry" />
        </mxCell>
        <mxCell id="68sZiEqwBh2bfW3YKWfS-286" value="账单分析主界面" style="rounded=1;whiteSpace=wrap;html=1;absoluteArcSize=1;arcSize=14;strokeWidth=2;fontSize=13;" vertex="1" parent="1">
          <mxGeometry x="-2727" y="2997" width="100" height="61" as="geometry" />
        </mxCell>
        <mxCell id="68sZiEqwBh2bfW3YKWfS-288" value="教学系统" style="rounded=1;whiteSpace=wrap;html=1;absoluteArcSize=1;arcSize=14;strokeWidth=2;fontSize=14;" vertex="1" parent="1">
          <mxGeometry x="-3732" y="3817" width="100" height="61" as="geometry" />
        </mxCell>
        <mxCell id="68sZiEqwBh2bfW3YKWfS-324" style="edgeStyle=orthogonalEdgeStyle;rounded=0;orthogonalLoop=1;jettySize=auto;html=1;entryX=1;entryY=0.5;entryDx=0;entryDy=0;fontSize=14;" edge="1" parent="1" source="68sZiEqwBh2bfW3YKWfS-289" target="68sZiEqwBh2bfW3YKWfS-288">
          <mxGeometry relative="1" as="geometry" />
        </mxCell>
        <mxCell id="68sZiEqwBh2bfW3YKWfS-289" value="登录模块" style="rounded=1;whiteSpace=wrap;html=1;absoluteArcSize=1;arcSize=14;strokeWidth=2;fontSize=14;" vertex="1" parent="1">
          <mxGeometry x="-3508" y="3552" width="123" height="41" as="geometry" />
        </mxCell>
        <mxCell id="68sZiEqwBh2bfW3YKWfS-325" style="edgeStyle=orthogonalEdgeStyle;rounded=0;orthogonalLoop=1;jettySize=auto;html=1;entryX=1;entryY=0.5;entryDx=0;entryDy=0;fontSize=14;" edge="1" parent="1" source="68sZiEqwBh2bfW3YKWfS-290" target="68sZiEqwBh2bfW3YKWfS-288">
          <mxGeometry relative="1" as="geometry" />
        </mxCell>
        <mxCell id="68sZiEqwBh2bfW3YKWfS-290" value="学习模块" style="rounded=1;whiteSpace=wrap;html=1;absoluteArcSize=1;arcSize=14;strokeWidth=2;fontSize=14;" vertex="1" parent="1">
          <mxGeometry x="-3508" y="3729" width="123" height="41" as="geometry" />
        </mxCell>
        <mxCell id="68sZiEqwBh2bfW3YKWfS-326" style="edgeStyle=orthogonalEdgeStyle;rounded=0;orthogonalLoop=1;jettySize=auto;html=1;entryX=1;entryY=0.5;entryDx=0;entryDy=0;fontSize=14;" edge="1" parent="1" source="68sZiEqwBh2bfW3YKWfS-291" target="68sZiEqwBh2bfW3YKWfS-288">
          <mxGeometry relative="1" as="geometry" />
        </mxCell>
        <mxCell id="68sZiEqwBh2bfW3YKWfS-291" value="论坛模块" style="rounded=1;whiteSpace=wrap;html=1;absoluteArcSize=1;arcSize=14;strokeWidth=2;fontSize=14;" vertex="1" parent="1">
          <mxGeometry x="-3508" y="3928" width="123" height="41" as="geometry" />
        </mxCell>
        <mxCell id="68sZiEqwBh2bfW3YKWfS-327" style="edgeStyle=orthogonalEdgeStyle;rounded=0;orthogonalLoop=1;jettySize=auto;html=1;entryX=1;entryY=0.5;entryDx=0;entryDy=0;fontSize=14;" edge="1" parent="1" source="68sZiEqwBh2bfW3YKWfS-292" target="68sZiEqwBh2bfW3YKWfS-288">
          <mxGeometry relative="1" as="geometry" />
        </mxCell>
        <mxCell id="68sZiEqwBh2bfW3YKWfS-292" value="考试模块" style="rounded=1;whiteSpace=wrap;html=1;absoluteArcSize=1;arcSize=14;strokeWidth=2;fontSize=14;" vertex="1" parent="1">
          <mxGeometry x="-3508" y="4139" width="123" height="41" as="geometry" />
        </mxCell>
        <mxCell id="68sZiEqwBh2bfW3YKWfS-312" style="edgeStyle=orthogonalEdgeStyle;rounded=0;orthogonalLoop=1;jettySize=auto;html=1;entryX=1;entryY=0.5;entryDx=0;entryDy=0;fontSize=14;" edge="1" parent="1" source="68sZiEqwBh2bfW3YKWfS-295" target="68sZiEqwBh2bfW3YKWfS-289">
          <mxGeometry relative="1" as="geometry" />
        </mxCell>
        <mxCell id="68sZiEqwBh2bfW3YKWfS-295" value="用户登录" style="rounded=1;whiteSpace=wrap;html=1;absoluteArcSize=1;arcSize=14;strokeWidth=2;fontSize=14;" vertex="1" parent="1">
          <mxGeometry x="-3263" y="3501" width="121" height="41" as="geometry" />
        </mxCell>
        <mxCell id="68sZiEqwBh2bfW3YKWfS-313" style="edgeStyle=orthogonalEdgeStyle;rounded=0;orthogonalLoop=1;jettySize=auto;html=1;entryX=1;entryY=0.5;entryDx=0;entryDy=0;fontSize=14;" edge="1" parent="1" source="68sZiEqwBh2bfW3YKWfS-296" target="68sZiEqwBh2bfW3YKWfS-289">
          <mxGeometry relative="1" as="geometry" />
        </mxCell>
        <mxCell id="68sZiEqwBh2bfW3YKWfS-296" value="个人信息维护" style="rounded=1;whiteSpace=wrap;html=1;absoluteArcSize=1;arcSize=14;strokeWidth=2;fontSize=14;" vertex="1" parent="1">
          <mxGeometry x="-3263" y="3593" width="121" height="41" as="geometry" />
        </mxCell>
        <mxCell id="68sZiEqwBh2bfW3YKWfS-314" style="edgeStyle=orthogonalEdgeStyle;rounded=0;orthogonalLoop=1;jettySize=auto;html=1;entryX=1;entryY=0.5;entryDx=0;entryDy=0;fontSize=14;" edge="1" parent="1" source="68sZiEqwBh2bfW3YKWfS-297" target="68sZiEqwBh2bfW3YKWfS-290">
          <mxGeometry relative="1" as="geometry" />
        </mxCell>
        <mxCell id="68sZiEqwBh2bfW3YKWfS-297" value="资源管理" style="rounded=1;whiteSpace=wrap;html=1;absoluteArcSize=1;arcSize=14;strokeWidth=2;fontSize=14;" vertex="1" parent="1">
          <mxGeometry x="-3264" y="3661" width="123" height="41" as="geometry" />
        </mxCell>
        <mxCell id="68sZiEqwBh2bfW3YKWfS-315" style="edgeStyle=orthogonalEdgeStyle;rounded=0;orthogonalLoop=1;jettySize=auto;html=1;entryX=1;entryY=0.5;entryDx=0;entryDy=0;fontSize=14;" edge="1" parent="1" source="68sZiEqwBh2bfW3YKWfS-298" target="68sZiEqwBh2bfW3YKWfS-290">
          <mxGeometry relative="1" as="geometry" />
        </mxCell>
        <mxCell id="68sZiEqwBh2bfW3YKWfS-298" value="学习资源" style="rounded=1;whiteSpace=wrap;html=1;absoluteArcSize=1;arcSize=14;strokeWidth=2;fontSize=14;" vertex="1" parent="1">
          <mxGeometry x="-3268" y="3729" width="123" height="41" as="geometry" />
        </mxCell>
        <mxCell id="68sZiEqwBh2bfW3YKWfS-316" style="edgeStyle=orthogonalEdgeStyle;rounded=0;orthogonalLoop=1;jettySize=auto;html=1;entryX=1;entryY=0.5;entryDx=0;entryDy=0;fontSize=14;" edge="1" parent="1" source="68sZiEqwBh2bfW3YKWfS-299" target="68sZiEqwBh2bfW3YKWfS-290">
          <mxGeometry relative="1" as="geometry" />
        </mxCell>
        <mxCell id="68sZiEqwBh2bfW3YKWfS-299" value="作业" style="rounded=1;whiteSpace=wrap;html=1;absoluteArcSize=1;arcSize=14;strokeWidth=2;fontSize=14;" vertex="1" parent="1">
          <mxGeometry x="-3265" y="3796" width="123" height="41" as="geometry" />
        </mxCell>
        <mxCell id="68sZiEqwBh2bfW3YKWfS-317" style="edgeStyle=orthogonalEdgeStyle;rounded=0;orthogonalLoop=1;jettySize=auto;html=1;entryX=1;entryY=0.5;entryDx=0;entryDy=0;fontSize=14;" edge="1" parent="1" source="68sZiEqwBh2bfW3YKWfS-300" target="68sZiEqwBh2bfW3YKWfS-291">
          <mxGeometry relative="1" as="geometry" />
        </mxCell>
        <mxCell id="68sZiEqwBh2bfW3YKWfS-300" value="发布帖子" style="rounded=1;whiteSpace=wrap;html=1;absoluteArcSize=1;arcSize=14;strokeWidth=2;fontSize=14;" vertex="1" parent="1">
          <mxGeometry x="-3263" y="3863" width="123" height="41" as="geometry" />
        </mxCell>
        <mxCell id="68sZiEqwBh2bfW3YKWfS-318" style="edgeStyle=orthogonalEdgeStyle;rounded=0;orthogonalLoop=1;jettySize=auto;html=1;entryX=1;entryY=0.5;entryDx=0;entryDy=0;fontSize=14;" edge="1" parent="1" source="68sZiEqwBh2bfW3YKWfS-301" target="68sZiEqwBh2bfW3YKWfS-291">
          <mxGeometry relative="1" as="geometry" />
        </mxCell>
        <mxCell id="68sZiEqwBh2bfW3YKWfS-301" value="讨论" style="rounded=1;whiteSpace=wrap;html=1;absoluteArcSize=1;arcSize=14;strokeWidth=2;fontSize=14;" vertex="1" parent="1">
          <mxGeometry x="-3260" y="3928" width="123" height="41" as="geometry" />
        </mxCell>
        <mxCell id="68sZiEqwBh2bfW3YKWfS-319" style="edgeStyle=orthogonalEdgeStyle;rounded=0;orthogonalLoop=1;jettySize=auto;html=1;entryX=1;entryY=0.5;entryDx=0;entryDy=0;fontSize=14;" edge="1" parent="1" source="68sZiEqwBh2bfW3YKWfS-302" target="68sZiEqwBh2bfW3YKWfS-291">
          <mxGeometry relative="1" as="geometry" />
        </mxCell>
        <mxCell id="68sZiEqwBh2bfW3YKWfS-302" value="收集" style="rounded=1;whiteSpace=wrap;html=1;absoluteArcSize=1;arcSize=14;strokeWidth=2;fontSize=14;" vertex="1" parent="1">
          <mxGeometry x="-3263" y="3994" width="123" height="41" as="geometry" />
        </mxCell>
        <mxCell id="68sZiEqwBh2bfW3YKWfS-320" style="edgeStyle=orthogonalEdgeStyle;rounded=0;orthogonalLoop=1;jettySize=auto;html=1;entryX=1;entryY=0.5;entryDx=0;entryDy=0;fontSize=14;" edge="1" parent="1" source="68sZiEqwBh2bfW3YKWfS-303" target="68sZiEqwBh2bfW3YKWfS-292">
          <mxGeometry relative="1" as="geometry" />
        </mxCell>
        <mxCell id="68sZiEqwBh2bfW3YKWfS-303" value="测试维护" style="rounded=1;whiteSpace=wrap;html=1;absoluteArcSize=1;arcSize=14;strokeWidth=2;fontSize=14;" vertex="1" parent="1">
          <mxGeometry x="-3258" y="4054" width="123" height="41" as="geometry" />
        </mxCell>
        <mxCell id="68sZiEqwBh2bfW3YKWfS-321" style="edgeStyle=orthogonalEdgeStyle;rounded=0;orthogonalLoop=1;jettySize=auto;html=1;entryX=1;entryY=0.5;entryDx=0;entryDy=0;fontSize=14;" edge="1" parent="1" source="68sZiEqwBh2bfW3YKWfS-304" target="68sZiEqwBh2bfW3YKWfS-292">
          <mxGeometry relative="1" as="geometry" />
        </mxCell>
        <mxCell id="68sZiEqwBh2bfW3YKWfS-304" value="智能试卷" style="rounded=1;whiteSpace=wrap;html=1;absoluteArcSize=1;arcSize=14;strokeWidth=2;fontSize=14;" vertex="1" parent="1">
          <mxGeometry x="-3258" y="4117" width="123" height="41" as="geometry" />
        </mxCell>
        <mxCell id="68sZiEqwBh2bfW3YKWfS-323" style="edgeStyle=orthogonalEdgeStyle;rounded=0;orthogonalLoop=1;jettySize=auto;html=1;entryX=1;entryY=0.5;entryDx=0;entryDy=0;fontSize=14;" edge="1" parent="1" source="68sZiEqwBh2bfW3YKWfS-305" target="68sZiEqwBh2bfW3YKWfS-292">
          <mxGeometry relative="1" as="geometry" />
        </mxCell>
        <mxCell id="68sZiEqwBh2bfW3YKWfS-305" value="在线考试" style="rounded=1;whiteSpace=wrap;html=1;absoluteArcSize=1;arcSize=14;strokeWidth=2;fontSize=14;" vertex="1" parent="1">
          <mxGeometry x="-3258" y="4239" width="123" height="41" as="geometry" />
        </mxCell>
        <mxCell id="68sZiEqwBh2bfW3YKWfS-322" style="edgeStyle=orthogonalEdgeStyle;rounded=0;orthogonalLoop=1;jettySize=auto;html=1;entryX=1;entryY=0.5;entryDx=0;entryDy=0;fontSize=14;" edge="1" parent="1" source="68sZiEqwBh2bfW3YKWfS-306" target="68sZiEqwBh2bfW3YKWfS-292">
          <mxGeometry relative="1" as="geometry" />
        </mxCell>
        <mxCell id="68sZiEqwBh2bfW3YKWfS-306" value="测试反馈" style="rounded=1;whiteSpace=wrap;html=1;absoluteArcSize=1;arcSize=14;strokeWidth=2;fontSize=14;" vertex="1" parent="1">
          <mxGeometry x="-3258" y="4178" width="123" height="41" as="geometry" />
        </mxCell>
      </root>
    </mxGraphModel>
  </diagram>
</mxfile>
